<svg width="12" height="8" viewBox="0 0 12 8" fill="none" xmlns="http://www.w3.org/2000/svg">
<path d="M11.5326 2.03073L6.53255 7.03073C6.46287 7.10065 6.38008 7.15613 6.28892 7.19399C6.19775 7.23184 6.10001 7.25133 6.0013 7.25133C5.90259 7.25133 5.80485 7.23184 5.71369 7.19399C5.62252 7.15613 5.53973 7.10065 5.47005 7.03073L0.470051 2.03073C0.329155 1.88984 0.25 1.69874 0.25 1.49948C0.25 1.30023 0.329155 1.10913 0.470051 0.968235C0.610947 0.827338 0.802044 0.748184 1.0013 0.748184C1.20056 0.748184 1.39165 0.827338 1.53255 0.968235L6.00193 5.43761L10.4713 0.96761C10.6122 0.826714 10.8033 0.747559 11.0026 0.747559C11.2018 0.747559 11.3929 0.826714 11.5338 0.96761C11.6747 1.10851 11.7539 1.2996 11.7539 1.49886C11.7539 1.69812 11.6747 1.88921 11.5338 2.03011L11.5326 2.03073Z" fill="#1A1A1A"/>
</svg>
