<svg width="1441" height="400" viewBox="0 0 1441 400" fill="none" xmlns="http://www.w3.org/2000/svg">
<g clip-path="url(#clip0_1458_11729)">
<rect width="1441" height="400" transform="translate(0 -0.00585938)" fill="#BD3939"/>
<g style="mix-blend-mode:screen">
<path d="M79.0031 79.9941C79.0031 -0.00503956 79.0031 44.1777 79.0031 -0.00503683C122.791 -0.00503492 -0.281281 0.00234582 79.0031 -0.00503683C35.2155 -0.00503874 79.0031 -0.00505266 -0.28125 -0.00585938C-0.281252 44.1769 35.2155 79.9941 79.0031 79.9941Z" fill="#F0675E"/>
</g>
<g style="mix-blend-mode:screen">
<path d="M1363.5 79.9941C1363.5 -0.00503956 1363.5 44.1777 1363.5 -0.00503683C1319.71 -0.00503492 1442.79 0.00234582 1363.5 -0.00503683C1407.29 -0.00503874 1363.5 -0.00505266 1442.79 -0.00585938C1442.79 44.1769 1407.29 79.9941 1363.5 79.9941Z" fill="#F0675E"/>
</g>
<g style="mix-blend-mode:screen">
<path d="M159 0.709831C79.0008 0.709831 123.184 0.709831 79.0008 0.709831C79.0008 -43.0777 79.0082 79.9941 79.0008 0.709831C79.0008 44.4973 79.0008 0.709831 79 79.9941C123.183 79.9941 159 44.4973 159 0.709831Z" fill="#F0675E"/>
</g>
<g style="mix-blend-mode:screen">
<path d="M1283.5 0.709831C1363.5 0.709831 1319.32 0.709831 1363.5 0.709831C1363.5 -43.0777 1363.5 79.9941 1363.5 0.709831C1363.5 44.4973 1363.5 0.709831 1363.5 79.9941C1319.32 79.9941 1283.5 44.4973 1283.5 0.709831Z" fill="#F0675E"/>
</g>
<g style="mix-blend-mode:screen" opacity="0.8">
<path d="M80 159.278C159.999 159.278 115.816 159.278 159.999 159.278C159.999 203.066 159.992 79.9941 159.999 159.278C159.999 115.491 159.999 159.278 160 79.9941C115.817 79.9941 80 115.491 80 159.278Z" fill="#F0675E"/>
</g>
<g style="mix-blend-mode:screen" opacity="0.8">
<path d="M1362.5 159.278C1282.5 159.278 1326.69 159.278 1282.5 159.278C1282.5 203.066 1282.51 79.9941 1282.5 159.278C1282.5 115.491 1282.5 159.278 1282.5 79.9941C1326.69 79.9941 1362.5 115.491 1362.5 159.278Z" fill="#F0675E"/>
</g>
<g style="mix-blend-mode:screen">
<path d="M162.607 159.994C162.607 239.993 162.607 195.811 162.607 239.993C119.311 239.993 241 239.986 162.607 239.993C205.902 239.993 162.607 239.993 241 239.994C241 195.811 205.902 159.994 162.607 159.994Z" fill="#F0675E"/>
</g>
<g style="mix-blend-mode:screen">
<path d="M1279.9 159.994C1279.9 239.993 1279.9 195.811 1279.9 239.993C1323.19 239.993 1201.5 239.986 1279.9 239.993C1236.6 239.993 1279.9 239.993 1201.5 239.994C1201.5 195.811 1236.6 159.994 1279.9 159.994Z" fill="#F0675E"/>
</g>
<g style="mix-blend-mode:screen" opacity="0.2">
<path d="M83 81.6007C3.00082 81.6007 47.1836 81.6007 3.00082 81.6007C3.00082 38.3051 3.00821 159.994 3.00082 81.6007C3.00082 124.896 3.0008 81.6007 3 159.994C47.1828 159.994 83 124.896 83 81.6007Z" fill="#F0675E"/>
</g>
<g style="mix-blend-mode:screen" opacity="0.2">
<path d="M1359.5 81.6007C1439.5 81.6007 1395.32 81.6007 1439.5 81.6007C1439.5 38.3051 1439.5 159.994 1439.5 81.6007C1439.5 124.896 1439.5 81.6007 1439.5 159.994C1395.32 159.994 1359.5 124.896 1359.5 81.6007Z" fill="#F0675E"/>
</g>
<g style="mix-blend-mode:screen" opacity="0.2">
<path d="M163 161.601C83.0008 161.601 127.184 161.601 83.0008 161.601C83.0008 118.305 83.0082 239.994 83.0008 161.601C83.0008 204.896 83.0008 161.601 83 239.994C127.183 239.994 163 204.896 163 161.601Z" fill="#F0675E"/>
</g>
<g style="mix-blend-mode:screen" opacity="0.2">
<path d="M1279.5 161.601C1359.5 161.601 1315.32 161.601 1359.5 161.601C1359.5 118.305 1359.5 239.994 1359.5 161.601C1359.5 204.896 1359.5 161.601 1359.5 239.994C1315.32 239.994 1279.5 204.896 1279.5 161.601Z" fill="#F0675E"/>
</g>
<g style="mix-blend-mode:screen">
<path d="M0.715687 159.994C0.715691 239.993 0.715689 195.811 0.715691 239.993C-43.0718 239.993 80 239.986 0.715691 239.993C44.5032 239.993 0.715691 239.993 80 239.994C80 195.811 44.5032 159.994 0.715687 159.994Z" fill="#F0675E"/>
</g>
<g style="mix-blend-mode:screen">
<path d="M1441.79 159.994C1441.79 239.993 1441.79 195.811 1441.79 239.993C1485.58 239.993 1362.5 239.986 1441.79 239.993C1398 239.993 1441.79 239.993 1362.5 239.994C1362.5 195.811 1398 159.994 1441.79 159.994Z" fill="#F0675E"/>
</g>
<g style="mix-blend-mode:screen">
<path d="M1363.23 319.994C1363.23 399.993 1363.23 355.811 1363.23 399.993C1407.01 399.993 1283.94 399.986 1363.23 399.993C1319.44 399.993 1363.23 399.993 1283.94 399.994C1283.94 355.811 1319.44 319.994 1363.23 319.994Z" fill="#F0675E"/>
</g>
<g style="mix-blend-mode:screen" opacity="0.2">
<path d="M245.716 -0.00584828C245.716 79.9933 245.716 35.8106 245.716 79.9933C201.928 79.9933 325 79.9859 245.716 79.9933C289.503 79.9933 245.716 79.9933 325 79.9941C325 35.8114 289.503 -0.00585019 245.716 -0.00584828Z" fill="#F0675E"/>
</g>
<g style="mix-blend-mode:screen" opacity="0.2">
<path d="M1196.79 -0.00584828C1196.79 79.9933 1196.79 35.8106 1196.79 79.9933C1240.58 79.9933 1117.5 79.9859 1196.79 79.9933C1153 79.9933 1196.79 79.9933 1117.5 79.9941C1117.5 35.8114 1153 -0.00585019 1196.79 -0.00584828Z" fill="#F0675E"/>
</g>
<g style="mix-blend-mode:screen" opacity="0.2">
<path d="M239.716 239.994C239.716 319.993 239.716 275.811 239.716 319.993C195.928 319.993 319 319.986 239.716 319.993C283.503 319.993 239.716 319.993 319 319.994C319 275.811 283.503 239.994 239.716 239.994Z" fill="#F0675E"/>
</g>
<g style="mix-blend-mode:screen" opacity="0.2">
<path d="M1202.79 239.994C1202.79 319.993 1202.79 275.811 1202.79 319.993C1246.58 319.993 1123.5 319.986 1202.79 319.993C1159 319.993 1202.79 319.993 1123.5 319.994C1123.5 275.811 1159 239.994 1202.79 239.994Z" fill="#F0675E"/>
</g>
<g style="mix-blend-mode:screen" opacity="0.2">
<path d="M159.566 399.994C159.566 319.995 159.566 364.178 159.566 319.995C203.353 319.995 80.2812 320.002 159.566 319.995C115.778 319.995 159.566 319.995 80.2812 319.994C80.2812 364.177 115.778 399.994 159.566 399.994Z" fill="#F0675E"/>
</g>
<g style="mix-blend-mode:screen" opacity="0.2">
<path d="M1282.93 399.994C1282.93 319.995 1282.93 364.178 1282.93 319.995C1239.15 319.995 1362.22 320.002 1282.93 319.995C1326.72 319.995 1282.93 319.995 1362.22 319.994C1362.22 364.177 1326.72 399.994 1282.93 399.994Z" fill="#F0675E"/>
</g>
<g style="mix-blend-mode:screen" opacity="0.2">
<path d="M325.999 79.9941C325.999 -0.00503956 325.999 44.1777 325.999 -0.00503683C369.787 -0.00503492 246.715 0.00234582 325.999 -0.00503683C282.212 -0.00503874 325.999 -0.00505266 246.715 -0.00585938C246.715 44.1769 282.212 79.9941 325.999 79.9941Z" fill="#F0675E"/>
</g>
<g style="mix-blend-mode:screen" opacity="0.2">
<path d="M1116.5 79.9941C1116.5 -0.00503956 1116.5 44.1777 1116.5 -0.00503683C1072.72 -0.00503492 1195.79 0.00234582 1116.5 -0.00503683C1160.29 -0.00503874 1116.5 -0.00505266 1195.79 -0.00585938C1195.79 44.1769 1160.29 79.9941 1116.5 79.9941Z" fill="#F0675E"/>
</g>
<g style="mix-blend-mode:screen" opacity="0.2">
<path d="M319.999 319.994C319.999 239.995 319.999 284.178 319.999 239.995C363.787 239.995 240.715 240.002 319.999 239.995C276.212 239.995 319.999 239.995 240.715 239.994C240.715 284.177 276.212 319.994 319.999 319.994Z" fill="#F0675E"/>
</g>
<g style="mix-blend-mode:screen" opacity="0.2">
<path d="M1122.5 319.994C1122.5 239.995 1122.5 284.178 1122.5 239.995C1078.72 239.995 1201.79 240.002 1122.5 239.995C1166.29 239.995 1122.5 239.995 1201.79 239.994C1201.79 284.177 1166.29 319.994 1122.5 319.994Z" fill="#F0675E"/>
</g>
<g style="mix-blend-mode:screen" opacity="0.5">
<path d="M79.2843 399.994C79.2843 319.995 79.2843 364.178 79.2843 319.995C123.072 319.995 -3.05179e-05 320.002 79.2843 319.995C35.4968 319.995 79.2843 319.995 0 319.994C-1.93129e-06 364.177 35.4968 399.994 79.2843 399.994Z" fill="#F0675E"/>
</g>
<g style="mix-blend-mode:screen" opacity="0.5">
<path d="M1363.22 399.994C1363.22 319.995 1363.22 364.178 1363.22 319.995C1319.43 319.995 1442.5 320.002 1363.22 319.995C1407.01 319.995 1363.22 319.995 1442.5 319.994C1442.5 364.177 1407.01 399.994 1363.22 399.994Z" fill="#F0675E"/>
</g>
<g style="mix-blend-mode:screen">
<rect y="239.994" width="80" height="80" fill="#F0675E"/>
</g>
<g style="mix-blend-mode:screen">
<rect width="80" height="80" transform="matrix(-1 0 0 1 1442.5 239.994)" fill="#F0675E"/>
</g>
<g style="mix-blend-mode:screen">
<mask id="mask0_1458_11729" style="mask-type:alpha" maskUnits="userSpaceOnUse" x="3" y="242" width="74" height="75">
<circle cx="39.7516" cy="279.746" r="36.7516" fill="#4138B1"/>
</mask>
<g mask="url(#mask0_1458_11729)">
<circle cx="77.9193" cy="317.91" r="37.4584" fill="#F0675E"/>
<circle cx="77.9193" cy="242.995" r="37.4584" fill="#F0675E"/>
<circle cx="2.99742" cy="242.995" r="37.4584" fill="#F0675E"/>
<circle cx="2.99742" cy="317.91" r="37.4584" fill="#F0675E"/>
</g>
</g>
<g style="mix-blend-mode:screen">
<mask id="mask1_1458_11729" style="mask-type:alpha" maskUnits="userSpaceOnUse" x="1366" y="242" width="74" height="75">
<circle cx="36.7516" cy="36.7516" r="36.7516" transform="matrix(-1 0 0 1 1439.5 242.994)" fill="#4138B1"/>
</mask>
<g mask="url(#mask1_1458_11729)">
<circle cx="37.4584" cy="37.4584" r="37.4584" transform="matrix(-1 0 0 1 1402.04 280.452)" fill="#F0675E"/>
<circle cx="37.4584" cy="37.4584" r="37.4584" transform="matrix(-1 0 0 1 1402.04 205.536)" fill="#F0675E"/>
<circle cx="37.4584" cy="37.4584" r="37.4584" transform="matrix(-1 0 0 1 1476.96 205.536)" fill="#F0675E"/>
<circle cx="37.4584" cy="37.4584" r="37.4584" transform="matrix(-1 0 0 1 1476.96 280.452)" fill="#F0675E"/>
</g>
</g>
<g style="mix-blend-mode:screen" opacity="0.2">
<mask id="mask2_1458_11729" style="mask-type:alpha" maskUnits="userSpaceOnUse" x="163" y="242" width="74" height="75">
<circle cx="199.752" cy="279.746" r="36.7516" fill="#4138B1"/>
</mask>
<g mask="url(#mask2_1458_11729)">
<circle cx="237.919" cy="317.91" r="37.4584" fill="#F0675E"/>
<circle cx="237.919" cy="242.995" r="37.4584" fill="#F0675E"/>
<circle cx="162.997" cy="242.995" r="37.4584" fill="#F0675E"/>
<circle cx="162.997" cy="317.91" r="37.4584" fill="#F0675E"/>
</g>
</g>
<g style="mix-blend-mode:screen" opacity="0.2">
<mask id="mask3_1458_11729" style="mask-type:alpha" maskUnits="userSpaceOnUse" x="1206" y="242" width="74" height="75">
<circle cx="36.7516" cy="36.7516" r="36.7516" transform="matrix(-1 0 0 1 1279.5 242.994)" fill="#4138B1"/>
</mask>
<g mask="url(#mask3_1458_11729)">
<circle cx="37.4584" cy="37.4584" r="37.4584" transform="matrix(-1 0 0 1 1242.04 280.452)" fill="#F0675E"/>
<circle cx="37.4584" cy="37.4584" r="37.4584" transform="matrix(-1 0 0 1 1242.04 205.536)" fill="#F0675E"/>
<circle cx="37.4584" cy="37.4584" r="37.4584" transform="matrix(-1 0 0 1 1316.96 205.536)" fill="#F0675E"/>
<circle cx="37.4584" cy="37.4584" r="37.4584" transform="matrix(-1 0 0 1 1316.96 280.452)" fill="#F0675E"/>
</g>
</g>
</g>
<defs>
<clipPath id="clip0_1458_11729">
<rect width="1441" height="400" fill="white" transform="translate(0 -0.00585938)"/>
</clipPath>
</defs>
</svg>
