<svg width="1441" height="160" viewBox="0 0 1441 160" fill="none" xmlns="http://www.w3.org/2000/svg">
<g clip-path="url(#clip0_1458_11651)">
<rect width="1441" height="160" fill="#BD3939"/>
<g style="mix-blend-mode:screen">
<path d="M79.0031 80C79.0031 0.000819811 79.0031 44.1836 79.0031 0.000822546C122.791 0.00082446 -0.281281 0.0082052 79.0031 0.000822546C35.2155 0.000820632 79.0031 0.000806711 -0.28125 0C-0.281252 44.1828 35.2155 80 79.0031 80Z" fill="#BD3939"/>
</g>
<g style="mix-blend-mode:screen">
<path d="M1363.5 80C1363.5 0.000819811 1363.5 44.1836 1363.5 0.000822546C1319.71 0.00082446 1442.79 0.0082052 1363.5 0.000822546C1407.29 0.000820632 1363.5 0.000806711 1442.79 0C1442.79 44.1828 1407.29 80 1363.5 80Z" fill="#BD3939"/>
</g>
<g style="mix-blend-mode:screen">
<path d="M159 0.715691C79.0008 0.715691 123.184 0.715691 79.0008 0.715691C79.0008 -43.0718 79.0082 80 79.0008 0.715691C79.0008 44.5032 79.0008 0.715691 79 80C123.183 80 159 44.5032 159 0.715691Z" fill="#ED554B"/>
</g>
<g style="mix-blend-mode:screen">
<path d="M1283.5 0.715691C1363.5 0.715691 1319.32 0.715691 1363.5 0.715691C1363.5 -43.0718 1363.5 80 1363.5 0.715691C1363.5 44.5032 1363.5 0.715691 1363.5 80C1319.32 80 1283.5 44.5032 1283.5 0.715691Z" fill="#ED554B"/>
</g>
<g style="mix-blend-mode:screen" opacity="0.8">
<path d="M80 159.284C159.999 159.284 115.816 159.284 159.999 159.284C159.999 203.072 159.992 80 159.999 159.284C159.999 115.497 159.999 159.284 160 80C115.817 80 80 115.497 80 159.284Z" fill="#BD3939"/>
</g>
<g style="mix-blend-mode:screen" opacity="0.8">
<path d="M1362.5 159.284C1282.5 159.284 1326.69 159.284 1282.5 159.284C1282.5 203.072 1282.51 80 1282.5 159.284C1282.5 115.497 1282.5 159.284 1282.5 80C1326.69 80 1362.5 115.497 1362.5 159.284Z" fill="#BD3939"/>
</g>
<g style="mix-blend-mode:screen" opacity="0.5">
<path d="M325 80.6065C245.001 80.6065 289.184 80.6065 245.001 80.6065C245.001 37.311 245.008 159 245.001 80.6065C245.001 123.902 245.001 80.6065 245 159C289.183 159 325 123.902 325 80.6065Z" fill="#ED554B"/>
</g>
<g style="mix-blend-mode:screen" opacity="0.5">
<path d="M1117.5 80.6065C1197.5 80.6065 1153.32 80.6065 1197.5 80.6065C1197.5 37.311 1197.5 159 1197.5 80.6065C1197.5 123.902 1197.5 80.6065 1197.5 159C1153.32 159 1117.5 123.902 1117.5 80.6065Z" fill="#ED554B"/>
</g>
<g style="mix-blend-mode:screen" opacity="0.2">
<path d="M83 81.6065C3.00082 81.6065 47.1836 81.6065 3.00082 81.6065C3.00082 38.311 3.00821 160 3.00082 81.6065C3.00082 124.902 3.0008 81.6065 3 160C47.1828 160 83 124.902 83 81.6065Z" fill="#ED554B"/>
</g>
<g style="mix-blend-mode:screen" opacity="0.2">
<path d="M1359.5 81.6065C1439.5 81.6065 1395.32 81.6065 1439.5 81.6065C1439.5 38.311 1439.5 160 1439.5 81.6065C1439.5 124.902 1439.5 81.6065 1439.5 160C1395.32 160 1359.5 124.902 1359.5 81.6065Z" fill="#ED554B"/>
</g>
<g style="mix-blend-mode:screen" opacity="0.2">
<path d="M163 161.607C83.0008 161.607 127.184 161.607 83.0008 161.607C83.0008 118.311 83.0082 240 83.0008 161.607C83.0008 204.902 83.0008 161.607 83 240C127.183 240 163 204.902 163 161.607Z" fill="#ED554B"/>
</g>
<g style="mix-blend-mode:screen" opacity="0.2">
<path d="M1279.5 161.607C1359.5 161.607 1315.32 161.607 1359.5 161.607C1359.5 118.311 1359.5 240 1359.5 161.607C1359.5 204.902 1359.5 161.607 1359.5 240C1315.32 240 1279.5 204.902 1279.5 161.607Z" fill="#ED554B"/>
</g>
<g style="mix-blend-mode:screen" opacity="0.2">
<path d="M245.716 1.1095e-05C245.716 79.9992 245.716 35.8164 245.716 79.9992C201.928 79.9992 325 79.9918 245.716 79.9992C289.503 79.9992 245.716 79.9992 325 80C325 35.8172 289.503 9.18101e-06 245.716 1.1095e-05Z" fill="#BD3939"/>
</g>
<g style="mix-blend-mode:screen" opacity="0.2">
<path d="M1196.79 1.1095e-05C1196.79 79.9992 1196.79 35.8164 1196.79 79.9992C1240.58 79.9992 1117.5 79.9918 1196.79 79.9992C1153 79.9992 1196.79 79.9992 1117.5 80C1117.5 35.8172 1153 9.18101e-06 1196.79 1.1095e-05Z" fill="#BD3939"/>
</g>
<g style="mix-blend-mode:screen" opacity="0.2">
<path d="M325.999 80C325.999 0.000819811 325.999 44.1836 325.999 0.000822546C369.787 0.00082446 246.715 0.0082052 325.999 0.000822546C282.212 0.000820632 325.999 0.000806711 246.715 0C246.715 44.1828 282.212 80 325.999 80Z" fill="#BD3939"/>
</g>
<g style="mix-blend-mode:screen" opacity="0.2">
<path d="M1116.5 80C1116.5 0.000819811 1116.5 44.1836 1116.5 0.000822546C1072.72 0.00082446 1195.79 0.0082052 1116.5 0.000822546C1160.29 0.000820632 1116.5 0.000806711 1195.79 0C1195.79 44.1828 1160.29 80 1116.5 80Z" fill="#BD3939"/>
</g>
<g style="mix-blend-mode:screen" opacity="0.2">
<mask id="mask0_1458_11651" style="mask-type:alpha" maskUnits="userSpaceOnUse" x="320" y="78" width="74" height="74">
<circle cx="356.752" cy="114.752" r="36.7516" fill="#4138B1"/>
</mask>
<g mask="url(#mask0_1458_11651)">
<circle cx="394.919" cy="152.916" r="37.4584" fill="#ED554B"/>
<circle cx="394.919" cy="78.0007" r="37.4584" fill="#ED554B"/>
<circle cx="319.997" cy="78.0007" r="37.4584" fill="#ED554B"/>
<circle cx="319.997" cy="152.916" r="37.4584" fill="#ED554B"/>
</g>
</g>
<g style="mix-blend-mode:screen" opacity="0.2">
<mask id="mask1_1458_11651" style="mask-type:alpha" maskUnits="userSpaceOnUse" x="1049" y="78" width="74" height="74">
<circle cx="36.7516" cy="36.7516" r="36.7516" transform="matrix(-1 0 0 1 1122.5 78)" fill="#4138B1"/>
</mask>
<g mask="url(#mask1_1458_11651)">
<circle cx="37.4584" cy="37.4584" r="37.4584" transform="matrix(-1 0 0 1 1085.04 115.458)" fill="#ED554B"/>
<circle cx="37.4584" cy="37.4584" r="37.4584" transform="matrix(-1 0 0 1 1085.04 40.5424)" fill="#ED554B"/>
<circle cx="37.4584" cy="37.4584" r="37.4584" transform="matrix(-1 0 0 1 1159.96 40.5424)" fill="#ED554B"/>
<circle cx="37.4584" cy="37.4584" r="37.4584" transform="matrix(-1 0 0 1 1159.96 115.458)" fill="#ED554B"/>
</g>
</g>
</g>
<defs>
<clipPath id="clip0_1458_11651">
<rect width="1441" height="160" fill="white"/>
</clipPath>
</defs>
</svg>
