<svg width="371" height="306" viewBox="0 0 371 306" fill="none" xmlns="http://www.w3.org/2000/svg">
<g clip-path="url(#clip0_1458_10466)">
<rect x="-2" y="-55.5415" width="375" height="417" rx="11.657" fill="#BD3939"/>
<g style="mix-blend-mode:screen">
<path d="M-0.894911 53.9995C-0.894909 5.00001 -0.89491 32.062 -0.894909 5.00002C25.6728 5.00002 -49 5.00454 -0.894909 5.00002C-27.4626 5.00001 -0.894894 5.00001 -49 4.99951C-49 32.0615 -27.4626 53.9995 -0.894911 53.9995Z" fill="#F0675E"/>
</g>
<g style="mix-blend-mode:screen">
<path d="M50 -1.99641C0.000512038 -1.99641 27.6147 -1.99641 0.000511925 -1.99641C0.000511925 -29.0561 0.00512825 46.9995 0.000511925 -1.99641C0.000511925 25.0633 0.000502028 -1.99641 0 46.9995C27.6142 46.9995 50 25.0633 50 -1.99641Z" fill="#CC352B"/>
</g>
<g style="mix-blend-mode:screen">
<path d="M324 40.9954C373.999 40.9954 346.385 40.9954 373.999 40.9954C373.999 68.0551 373.995 -8.00049 373.999 40.9954C373.999 13.9357 373.999 40.9954 374 -8.00049C346.386 -8.00049 324 13.9357 324 40.9954Z" fill="#CC352B"/>
</g>
<g style="mix-blend-mode:screen" opacity="0.8">
<path d="M-8 120.995C40.9995 120.995 13.9375 120.995 40.9995 120.995C40.9995 148.055 40.995 71.9995 40.9995 120.995C40.9995 93.9357 40.9995 120.995 41 71.9995C13.9381 71.9995 -8 93.9357 -8 120.995Z" fill="#F0675E"/>
</g>
<g style="mix-blend-mode:screen" opacity="0.8">
<path d="M324 234.995C372.999 234.995 345.938 234.995 372.999 234.995C372.999 262.055 372.995 186 372.999 234.995C372.999 207.936 373 234.995 373 186C345.938 186 324 207.936 324 234.995Z" fill="#F0675E"/>
</g>
<g style="mix-blend-mode:screen">
<path d="M41.8033 121C41.8033 161.999 41.8033 139.355 41.8033 161.999C20.1555 161.999 81 161.995 41.8033 161.999C63.451 161.999 41.8033 161.999 81 162C81 139.356 63.451 121 41.8033 121Z" fill="#CC352B"/>
</g>
<g style="mix-blend-mode:screen">
<path d="M373.197 168C373.197 127 373.197 149.644 373.197 127C394.845 127 334 127.004 373.197 127C351.549 127 373.197 127 334 127C334 149.643 351.549 168 373.197 168Z" fill="#CC352B"/>
</g>
<g style="mix-blend-mode:screen">
<path d="M373.803 235C373.803 275.999 373.803 253.355 373.803 275.999C352.155 275.999 413 275.995 373.803 275.999C395.451 275.999 373.803 275.999 413 276C413 253.356 395.451 235 373.803 235Z" fill="#CC352B"/>
</g>
<g style="mix-blend-mode:screen" opacity="0.2">
<path d="M3 55.7853C-46.9995 55.7853 -19.3853 55.7853 -46.9995 55.7853C-46.9995 29.7095 -46.9949 103 -46.9995 55.7853C-46.9995 81.861 -46.9995 55.7853 -47 103C-19.3858 103 3 81.861 3 55.7853Z" fill="#CC352B"/>
</g>
<g style="mix-blend-mode:screen" opacity="0.2">
<path d="M42 122.894C-5.99951 122.894 20.5102 122.894 -5.99951 122.894C-5.99951 96.3267 -5.99508 171 -5.99951 122.894C-5.99951 149.462 -5.99952 122.894 -6 171C20.5097 171 42 149.462 42 122.894Z" fill="#CC352B"/>
</g>
<g style="mix-blend-mode:screen" opacity="0.2">
<path d="M372 233.894C324 233.894 350.51 233.894 324 233.894C324 207.327 324.005 282 324 233.894C324 260.462 324 233.894 324 282C350.51 282 372 260.462 372 233.894Z" fill="#CC352B"/>
</g>
<g style="mix-blend-mode:screen">
<path d="M-48.8868 103C-48.8868 152.999 -48.8868 125.385 -48.8868 152.999C-76.4384 152.999 1 152.994 -48.8868 152.999C-21.3351 152.999 -48.8868 152.999 1 153C0.999999 125.385 -21.3351 103 -48.8868 103Z" fill="#F0675E"/>
</g>
<g style="mix-blend-mode:screen" opacity="0.2">
<path d="M49.9959 253C49.9959 204 49.9959 231.062 49.9959 204C77.0556 204 1 204.005 49.9959 204C22.9362 204 49.9959 204 1 204C0.999999 231.061 22.9362 253 49.9959 253Z" fill="#F0675E"/>
</g>
<g style="mix-blend-mode:screen" opacity="0.5">
<path d="M-0.894911 253C-0.894909 204 -0.89491 231.062 -0.894909 204C25.6728 204 -49 204.005 -0.894909 204C-27.4626 204 -0.894894 204 -49 204C-49 231.061 -27.4626 253 -0.894911 253Z" fill="#F0675E"/>
</g>
<g style="mix-blend-mode:screen" opacity="0.2">
<path d="M98.1051 302C98.1051 253 98.1051 280.062 98.1051 253C124.673 253 50 253.005 98.1051 253C71.5374 253 98.1051 253 50 253C50 280.061 71.5374 302 98.1051 302Z" fill="#F0675E"/>
</g>
<g style="mix-blend-mode:screen">
<rect x="-49" y="153" width="50" height="51" fill="#F0675E"/>
</g>
</g>
<defs>
<clipPath id="clip0_1458_10466">
<rect x="-2" y="-55.5415" width="375" height="417" rx="11.657" fill="white"/>
</clipPath>
</defs>
</svg>
