<svg width="1440" height="422" viewBox="0 0 1440 422" fill="none" xmlns="http://www.w3.org/2000/svg">
<g clip-path="url(#clip0_1512_1621)">
<rect width="1440" height="422" transform="translate(0 -0.00439453)" fill="#1A1A1A"/>
<g style="mix-blend-mode:soft-light">
<path d="M78.0031 82.9956C78.0031 2.99643 78.0031 47.1792 78.0031 2.99643C121.791 2.99643 -1.28128 3.00381 78.0031 2.99643C34.2155 2.99643 78.0031 2.99641 -1.28125 2.99561C-1.28125 47.1784 34.2155 82.9956 78.0031 82.9956Z" fill="#F0675E"/>
</g>
<g style="mix-blend-mode:soft-light">
<path d="M1362.5 82.9956C1362.5 2.99643 1362.5 47.1792 1362.5 2.99643C1318.71 2.99643 1441.79 3.00381 1362.5 2.99643C1406.29 2.99643 1362.5 2.99641 1441.79 2.99561C1441.79 47.1784 1406.29 82.9956 1362.5 82.9956Z" fill="#F0675E"/>
</g>
<g style="mix-blend-mode:soft-light">
<path d="M158 3.71129C78.0008 3.71129 122.184 3.71129 78.0008 3.71129C78.0008 -40.0762 78.0082 82.9956 78.0008 3.71129C78.0008 47.4988 78.0008 3.71129 78 82.9956C122.183 82.9956 158 47.4988 158 3.71129Z" fill="#CC352B"/>
</g>
<g style="mix-blend-mode:soft-light">
<path d="M1282.5 3.71129C1362.5 3.71129 1318.32 3.71129 1362.5 3.71129C1362.5 -40.0762 1362.5 82.9956 1362.5 3.71129C1362.5 47.4988 1362.5 3.71129 1362.5 82.9956C1318.32 82.9956 1282.5 47.4988 1282.5 3.71129Z" fill="#CC352B"/>
</g>
<g style="mix-blend-mode:soft-light" opacity="0.8">
<path d="M79 162.28C158.999 162.28 114.816 162.28 158.999 162.28C158.999 206.067 158.992 82.9956 158.999 162.28C158.999 118.492 158.999 162.28 159 82.9956C114.817 82.9956 79 118.492 79 162.28Z" fill="#F0675E"/>
</g>
<g style="mix-blend-mode:soft-light" opacity="0.8">
<path d="M1361.5 162.28C1281.5 162.28 1325.69 162.28 1281.5 162.28C1281.5 206.067 1281.51 82.9956 1281.5 162.28C1281.5 118.492 1281.5 162.28 1281.5 82.9956C1325.69 82.9956 1361.5 118.492 1361.5 162.28Z" fill="#F0675E"/>
</g>
<g style="mix-blend-mode:soft-light">
<path d="M161.607 162.996C161.607 242.995 161.607 198.812 161.607 242.995C118.311 242.995 240 242.987 161.607 242.995C204.902 242.995 161.607 242.995 240 242.996C240 198.813 204.902 162.996 161.607 162.996Z" fill="#CC352B"/>
</g>
<g style="mix-blend-mode:soft-light">
<path d="M1278.9 162.996C1278.9 242.995 1278.9 198.812 1278.9 242.995C1322.19 242.995 1200.5 242.987 1278.9 242.995C1235.6 242.995 1278.9 242.995 1200.5 242.996C1200.5 198.813 1235.6 162.996 1278.9 162.996Z" fill="#CC352B"/>
</g>
<g style="mix-blend-mode:soft-light" opacity="0.5">
<path d="M324 83.6021C244.001 83.6021 288.184 83.6021 244.001 83.6021C244.001 40.3066 244.008 161.996 244.001 83.6021C244.001 126.898 244.001 83.6021 244 161.996C288.183 161.996 324 126.898 324 83.6021Z" fill="#CC352B"/>
</g>
<g style="mix-blend-mode:soft-light" opacity="0.5">
<path d="M1116.5 83.6021C1196.5 83.6021 1152.32 83.6021 1196.5 83.6021C1196.5 40.3066 1196.5 161.996 1196.5 83.6021C1196.5 126.898 1196.5 83.6021 1196.5 161.996C1152.32 161.996 1116.5 126.898 1116.5 83.6021Z" fill="#CC352B"/>
</g>
<g style="mix-blend-mode:soft-light" opacity="0.2">
<path d="M82 84.6021C2.00082 84.6021 46.1836 84.6021 2.00082 84.6021C2.00082 41.3066 2.00821 162.996 2.00082 84.6021C2.00082 127.898 2.0008 84.6021 2 162.996C46.1828 162.996 82 127.898 82 84.6021Z" fill="#CC352B"/>
</g>
<g style="mix-blend-mode:soft-light" opacity="0.2">
<path d="M1358.5 84.6021C1438.5 84.6021 1394.32 84.6021 1438.5 84.6021C1438.5 41.3066 1438.5 162.996 1438.5 84.6021C1438.5 127.898 1438.5 84.6021 1438.5 162.996C1394.32 162.996 1358.5 127.898 1358.5 84.6021Z" fill="#CC352B"/>
</g>
<g style="mix-blend-mode:soft-light" opacity="0.2">
<path d="M162 164.602C82.0008 164.602 126.184 164.602 82.0008 164.602C82.0008 121.307 82.0082 242.996 82.0008 164.602C82.0008 207.898 82.0008 164.602 82 242.996C126.183 242.996 162 207.898 162 164.602Z" fill="#CC352B"/>
</g>
<g style="mix-blend-mode:soft-light" opacity="0.2">
<path d="M1278.5 164.602C1358.5 164.602 1314.32 164.602 1358.5 164.602C1358.5 121.307 1358.5 242.996 1358.5 164.602C1358.5 207.898 1358.5 164.602 1358.5 242.996C1314.32 242.996 1278.5 207.898 1278.5 164.602Z" fill="#CC352B"/>
</g>
<g style="mix-blend-mode:soft-light" opacity="0.2">
<path d="M-6.00001 481.389C73.9992 481.389 29.8164 481.389 73.9992 481.389C73.9992 524.685 73.9918 402.996 73.9992 481.389C73.9992 438.094 73.9992 481.389 74 402.996C29.8172 402.996 -6.00001 438.094 -6.00001 481.389Z" fill="#CC352B"/>
</g>
<g style="mix-blend-mode:soft-light" opacity="0.2">
<path d="M1446.5 481.389C1366.5 481.389 1410.69 481.389 1366.5 481.389C1366.5 524.685 1366.51 402.996 1366.5 481.389C1366.5 438.094 1366.5 481.389 1366.5 402.996C1410.69 402.996 1446.5 438.094 1446.5 481.389Z" fill="#CC352B"/>
</g>
<g style="mix-blend-mode:soft-light">
<path d="M-0.284313 162.996C-0.284309 242.995 -0.284311 198.812 -0.284309 242.995C-44.0718 242.995 79 242.987 -0.284309 242.995C43.5032 242.995 -0.284309 242.995 79 242.996C79 198.813 43.5032 162.996 -0.284313 162.996Z" fill="#F0675E"/>
</g>
<g style="mix-blend-mode:soft-light">
<path d="M1440.79 162.996C1440.79 242.995 1440.79 198.812 1440.79 242.995C1484.58 242.995 1361.5 242.987 1440.79 242.995C1397 242.995 1440.79 242.995 1361.5 242.996C1361.5 198.813 1397 162.996 1440.79 162.996Z" fill="#F0675E"/>
</g>
<g style="mix-blend-mode:soft-light">
<path d="M1362.23 322.996C1362.23 402.995 1362.23 358.812 1362.23 402.995C1406.01 402.995 1282.94 402.987 1362.23 402.995C1318.44 402.995 1362.23 402.995 1282.94 402.996C1282.94 358.813 1318.44 322.996 1362.23 322.996Z" fill="#F0675E"/>
</g>
<g style="mix-blend-mode:soft-light" opacity="0.2">
<path d="M244.716 2.99562C244.716 82.9948 244.716 38.812 244.716 82.9948C200.928 82.9948 324 82.9874 244.716 82.9948C288.503 82.9948 244.716 82.9948 324 82.9956C324 38.8128 288.503 2.99561 244.716 2.99562Z" fill="#F0675E"/>
</g>
<g style="mix-blend-mode:soft-light" opacity="0.2">
<path d="M1195.79 2.99562C1195.79 82.9948 1195.79 38.812 1195.79 82.9948C1239.58 82.9948 1116.5 82.9874 1195.79 82.9948C1152 82.9948 1195.79 82.9948 1116.5 82.9956C1116.5 38.8128 1152 2.99561 1195.79 2.99562Z" fill="#F0675E"/>
</g>
<g style="mix-blend-mode:soft-light" opacity="0.2">
<path d="M238.716 242.996C238.716 322.995 238.716 278.812 238.716 322.995C194.928 322.995 318 322.987 238.716 322.995C282.503 322.995 238.716 322.995 318 322.996C318 278.813 282.503 242.996 238.716 242.996Z" fill="#F0675E"/>
</g>
<g style="mix-blend-mode:soft-light" opacity="0.2">
<path d="M1201.79 242.996C1201.79 322.995 1201.79 278.812 1201.79 322.995C1245.58 322.995 1122.5 322.987 1201.79 322.995C1158 322.995 1201.79 322.995 1122.5 322.996C1122.5 278.813 1158 242.996 1201.79 242.996Z" fill="#F0675E"/>
</g>
<g style="mix-blend-mode:soft-light" opacity="0.2">
<path d="M158.566 402.996C158.566 322.996 158.566 367.179 158.566 322.996C202.353 322.996 79.2812 323.004 158.566 322.996C114.778 322.996 158.566 322.996 79.2812 322.996C79.2812 367.178 114.778 402.996 158.566 402.996Z" fill="#F0675E"/>
</g>
<g style="mix-blend-mode:soft-light" opacity="0.2">
<path d="M1281.93 402.996C1281.93 322.996 1281.93 367.179 1281.93 322.996C1238.15 322.996 1361.22 323.004 1281.93 322.996C1325.72 322.996 1281.93 322.996 1361.22 322.996C1361.22 367.178 1325.72 402.996 1281.93 402.996Z" fill="#F0675E"/>
</g>
<g style="mix-blend-mode:soft-light" opacity="0.2">
<path d="M324.999 82.9956C324.999 2.99643 324.999 47.1792 324.999 2.99643C368.787 2.99643 245.715 3.00381 324.999 2.99643C281.212 2.99643 324.999 2.99641 245.715 2.99561C245.715 47.1784 281.212 82.9956 324.999 82.9956Z" fill="#F0675E"/>
</g>
<g style="mix-blend-mode:soft-light" opacity="0.2">
<path d="M1115.5 82.9956C1115.5 2.99643 1115.5 47.1792 1115.5 2.99643C1071.72 2.99643 1194.79 3.00381 1115.5 2.99643C1159.29 2.99643 1115.5 2.99641 1194.79 2.99561C1194.79 47.1784 1159.29 82.9956 1115.5 82.9956Z" fill="#F0675E"/>
</g>
<g style="mix-blend-mode:soft-light" opacity="0.2">
<path d="M318.999 322.996C318.999 242.996 318.999 287.179 318.999 242.996C362.787 242.996 239.715 243.004 318.999 242.996C275.212 242.996 318.999 242.996 239.715 242.996C239.715 287.178 275.212 322.996 318.999 322.996Z" fill="#F0675E"/>
</g>
<g style="mix-blend-mode:soft-light" opacity="0.2">
<path d="M1121.5 322.996C1121.5 242.996 1121.5 287.179 1121.5 242.996C1077.72 242.996 1200.79 243.004 1121.5 242.996C1165.29 242.996 1121.5 242.996 1200.79 242.996C1200.79 287.178 1165.29 322.996 1121.5 322.996Z" fill="#F0675E"/>
</g>
<g style="mix-blend-mode:soft-light" opacity="0.5">
<path d="M78.2843 402.996C78.2843 322.996 78.2843 367.179 78.2843 322.996C122.072 322.996 -1.00003 323.004 78.2843 322.996C34.4968 322.996 78.2843 322.996 -1 322.996C-1 367.178 34.4968 402.996 78.2843 402.996Z" fill="#F0675E"/>
</g>
<g style="mix-blend-mode:soft-light" opacity="0.5">
<path d="M1362.22 402.996C1362.22 322.996 1362.22 367.179 1362.22 322.996C1318.43 322.996 1441.5 323.004 1362.22 322.996C1406.01 322.996 1362.22 322.996 1441.5 322.996C1441.5 367.178 1406.01 402.996 1362.22 402.996Z" fill="#F0675E"/>
</g>
<g style="mix-blend-mode:soft-light" opacity="0.2">
<path d="M238.284 482.996C238.284 402.996 238.284 447.179 238.284 402.996C282.072 402.996 159 403.004 238.284 402.996C194.497 402.996 238.284 402.996 159 402.996C159 447.178 194.497 482.996 238.284 482.996Z" fill="#F0675E"/>
</g>
<g style="mix-blend-mode:soft-light" opacity="0.2">
<path d="M1202.22 482.996C1202.22 402.996 1202.22 447.179 1202.22 402.996C1158.43 402.996 1281.5 403.004 1202.22 402.996C1246.01 402.996 1202.22 402.996 1281.5 402.996C1281.5 447.178 1246.01 482.996 1202.22 482.996Z" fill="#F0675E"/>
</g>
<g style="mix-blend-mode:soft-light">
<rect x="-1" y="242.996" width="80" height="80" fill="#F0675E"/>
</g>
<g style="mix-blend-mode:soft-light">
<rect width="80" height="80" transform="matrix(-1 0 0 1 1441.5 242.996)" fill="#F0675E"/>
</g>
<g style="mix-blend-mode:color-burn">
<mask id="mask0_1512_1621" style="mask-type:alpha" maskUnits="userSpaceOnUse" x="2" y="245" width="74" height="75">
<circle cx="38.7516" cy="282.747" r="36.7516" fill="#4138B1"/>
</mask>
<g mask="url(#mask0_1512_1621)">
<circle cx="76.9193" cy="320.911" r="37.4584" fill="#DB5A51"/>
<circle cx="76.9193" cy="245.996" r="37.4584" fill="#E04F46"/>
<circle cx="1.99742" cy="245.996" r="37.4584" fill="#DB3F2D"/>
<circle cx="1.99742" cy="320.911" r="37.4584" fill="#ED554B"/>
</g>
</g>
<g style="mix-blend-mode:color-burn">
<mask id="mask1_1512_1621" style="mask-type:alpha" maskUnits="userSpaceOnUse" x="1365" y="245" width="74" height="75">
<circle cx="36.7516" cy="36.7516" r="36.7516" transform="matrix(-1 0 0 1 1438.5 245.996)" fill="#4138B1"/>
</mask>
<g mask="url(#mask1_1512_1621)">
<circle cx="37.4584" cy="37.4584" r="37.4584" transform="matrix(-1 0 0 1 1401.04 283.453)" fill="#DB5A51"/>
<circle cx="37.4584" cy="37.4584" r="37.4584" transform="matrix(-1 0 0 1 1401.04 208.538)" fill="#E04F46"/>
<circle cx="37.4584" cy="37.4584" r="37.4584" transform="matrix(-1 0 0 1 1475.96 208.538)" fill="#DB3F2D"/>
<circle cx="37.4584" cy="37.4584" r="37.4584" transform="matrix(-1 0 0 1 1475.96 283.453)" fill="#ED554B"/>
</g>
</g>
<g style="mix-blend-mode:soft-light" opacity="0.2">
<mask id="mask2_1512_1621" style="mask-type:alpha" maskUnits="userSpaceOnUse" x="162" y="245" width="74" height="75">
<circle cx="198.752" cy="282.747" r="36.7516" fill="#4138B1"/>
</mask>
<g mask="url(#mask2_1512_1621)">
<circle cx="236.919" cy="320.911" r="37.4584" fill="#DB5A51"/>
<circle cx="236.919" cy="245.996" r="37.4584" fill="#E04F46"/>
<circle cx="161.997" cy="245.996" r="37.4584" fill="#DB3F2D"/>
<circle cx="161.997" cy="320.911" r="37.4584" fill="#ED554B"/>
</g>
</g>
<g style="mix-blend-mode:soft-light" opacity="0.2">
<mask id="mask3_1512_1621" style="mask-type:alpha" maskUnits="userSpaceOnUse" x="1205" y="245" width="74" height="75">
<circle cx="36.7516" cy="36.7516" r="36.7516" transform="matrix(-1 0 0 1 1278.5 245.996)" fill="#4138B1"/>
</mask>
<g mask="url(#mask3_1512_1621)">
<circle cx="37.4584" cy="37.4584" r="37.4584" transform="matrix(-1 0 0 1 1241.04 283.453)" fill="#DB5A51"/>
<circle cx="37.4584" cy="37.4584" r="37.4584" transform="matrix(-1 0 0 1 1241.04 208.538)" fill="#E04F46"/>
<circle cx="37.4584" cy="37.4584" r="37.4584" transform="matrix(-1 0 0 1 1315.96 208.538)" fill="#DB3F2D"/>
<circle cx="37.4584" cy="37.4584" r="37.4584" transform="matrix(-1 0 0 1 1315.96 283.453)" fill="#ED554B"/>
</g>
</g>
<g style="mix-blend-mode:soft-light" opacity="0.2">
<mask id="mask4_1512_1621" style="mask-type:alpha" maskUnits="userSpaceOnUse" x="319" y="80" width="74" height="75">
<circle cx="355.752" cy="117.747" r="36.7516" fill="#4138B1"/>
</mask>
<g mask="url(#mask4_1512_1621)">
<circle cx="393.919" cy="155.911" r="37.4584" fill="#DB5A51"/>
<circle cx="393.919" cy="80.9964" r="37.4584" fill="#E04F46"/>
<circle cx="318.997" cy="80.9964" r="37.4584" fill="#DB3F2D"/>
<circle cx="318.997" cy="155.911" r="37.4584" fill="#ED554B"/>
</g>
</g>
<g style="mix-blend-mode:soft-light" opacity="0.2">
<mask id="mask5_1512_1621" style="mask-type:alpha" maskUnits="userSpaceOnUse" x="1048" y="80" width="74" height="75">
<circle cx="36.7516" cy="36.7516" r="36.7516" transform="matrix(-1 0 0 1 1121.5 80.9956)" fill="#4138B1"/>
</mask>
<g mask="url(#mask5_1512_1621)">
<circle cx="37.4584" cy="37.4584" r="37.4584" transform="matrix(-1 0 0 1 1084.04 118.453)" fill="#DB5A51"/>
<circle cx="37.4584" cy="37.4584" r="37.4584" transform="matrix(-1 0 0 1 1084.04 43.5381)" fill="#E04F46"/>
<circle cx="37.4584" cy="37.4584" r="37.4584" transform="matrix(-1 0 0 1 1158.96 43.5381)" fill="#DB3F2D"/>
<circle cx="37.4584" cy="37.4584" r="37.4584" transform="matrix(-1 0 0 1 1158.96 118.453)" fill="#ED554B"/>
</g>
</g>
</g>
<defs>
<clipPath id="clip0_1512_1621">
<rect width="1440" height="422" fill="white" transform="translate(0 -0.00439453)"/>
</clipPath>
</defs>
</svg>
