<svg width="375" height="183" viewBox="0 0 375 183" fill="none" xmlns="http://www.w3.org/2000/svg">
<g clip-path="url(#clip0_1458_10384)">
<rect width="375" height="182" transform="translate(0 0.828857)" fill="#BD3939"/>
<g style="mix-blend-mode:screen">
<path d="M-14.6159 66.8289C-14.6159 97.8285 -14.6159 80.7077 -14.6159 97.8285C-29.8677 97.8285 13 97.8257 -14.6159 97.8285C0.635948 97.8285 -14.6159 97.8285 13 97.8289C13 80.708 0.635947 66.8289 -14.6159 66.8289Z" fill="#BD3939"/>
</g>
<g style="mix-blend-mode:screen">
<path d="M379.616 66.8289C379.616 97.8285 379.616 80.7077 379.616 97.8285C394.868 97.8285 352 97.8257 379.616 97.8285C364.364 97.8285 379.616 97.8285 352 97.8289C352 80.708 364.364 66.8289 379.616 66.8289Z" fill="#BD3939"/>
</g>
<g style="mix-blend-mode:screen" opacity="0.5">
<path d="M43 35.4313C14.0003 35.4313 30.0166 35.4313 14.0003 35.4313C14.0003 19.1955 14.003 64.8289 14.0003 35.4313C14.0003 51.6671 14.0003 35.4313 14 64.8289C30.0163 64.8289 43 51.6671 43 35.4313Z" fill="#BD3939"/>
</g>
<g style="mix-blend-mode:screen" opacity="0.5">
<path d="M322 35.4313C351 35.4313 334.983 35.4313 351 35.4313C351 19.1955 350.997 64.8289 351 35.4313C351 51.6671 351 35.4313 351 64.8289C334.984 64.8289 322 51.6671 322 35.4313Z" fill="#BD3939"/>
</g>
<g style="mix-blend-mode:screen" opacity="0.2">
<path d="M13.6024 3.82886C13.6024 34.8285 13.6024 17.7077 13.6024 34.8285C-2.63338 34.8285 43 34.8257 13.6024 34.8285C29.8383 34.8285 13.6024 34.8285 43 34.8289C43 17.708 29.8383 3.82886 13.6024 3.82886Z" fill="#BD3939"/>
</g>
<g style="mix-blend-mode:screen" opacity="0.2">
<path d="M349.616 3.82886C349.616 34.8285 349.616 17.7077 349.616 34.8285C364.868 34.8285 322 34.8257 349.616 34.8285C334.364 34.8285 349.616 34.8285 322 34.8289C322 17.708 334.364 3.82886 349.616 3.82886Z" fill="#BD3939"/>
</g>
<g style="mix-blend-mode:screen" opacity="0.2">
<path d="M12.3841 97.8289C12.3841 129.829 12.3841 112.155 12.3841 129.829C-2.86772 129.829 40 129.826 12.3841 129.829C27.636 129.829 12.3841 129.829 40 129.829C40 112.156 27.636 97.8289 12.3841 97.8289Z" fill="#BD3939"/>
</g>
<g style="mix-blend-mode:screen" opacity="0.2">
<path d="M352.507 97.8289C352.507 129.829 352.507 112.155 352.507 129.829C368.251 129.829 324 129.826 352.507 129.829C336.763 129.829 352.507 129.829 324 129.829C324 112.156 336.763 97.8289 352.507 97.8289Z" fill="#BD3939"/>
</g>
<g style="mix-blend-mode:screen" opacity="0.2">
<path d="M381.275 159.829C381.275 129.829 381.275 146.398 381.275 129.829C366.515 129.829 408 129.832 381.275 129.829C396.035 129.829 381.275 129.829 408 129.829C408 146.397 396.035 159.829 381.275 159.829Z" fill="#BD3939"/>
</g>
<g style="mix-blend-mode:screen" opacity="0.2">
<path d="M42.5067 34.8289C42.5067 3.82918 42.5067 20.95 42.5067 3.82918C58.2505 3.82918 14 3.83204 42.5067 3.82918C26.7629 3.82918 42.5067 3.82917 14 3.82886C14 20.9497 26.7629 34.8289 42.5067 34.8289Z" fill="#BD3939"/>
</g>
<g style="mix-blend-mode:screen" opacity="0.2">
<path d="M321.384 34.8289C321.384 3.82918 321.384 20.95 321.384 3.82918C306.132 3.82918 349 3.83204 321.384 3.82918C336.636 3.82918 321.384 3.82917 349 3.82886C349 20.9497 336.636 34.8289 321.384 34.8289Z" fill="#BD3939"/>
</g>
<g style="mix-blend-mode:screen" opacity="0.2">
<path d="M40.6159 129.829C40.6159 97.8292 40.6159 115.502 40.6159 97.8292C55.8677 97.8292 13 97.8321 40.6159 97.8292C25.3641 97.8292 40.6159 97.8292 13 97.8289C13 115.502 25.3641 129.829 40.6159 129.829Z" fill="#BD3939"/>
</g>
<g style="mix-blend-mode:screen" opacity="0.2">
<path d="M324.384 129.829C324.384 97.8292 324.384 115.502 324.384 97.8292C309.132 97.8292 352 97.8321 324.384 97.8292C339.636 97.8292 324.384 97.8292 352 97.8289C352 115.502 339.636 129.829 324.384 129.829Z" fill="#BD3939"/>
</g>
<g style="mix-blend-mode:screen" opacity="0.2">
<path d="M12.6159 190.829C12.6159 159.829 12.6159 176.95 12.6159 159.829C27.8677 159.829 -15 159.832 12.6159 159.829C-2.63595 159.829 12.6159 159.829 -15 159.829C-15 176.95 -2.63595 190.829 12.6159 190.829Z" fill="#BD3939"/>
</g>
<g style="mix-blend-mode:screen" opacity="0.2">
<path d="M352.384 190.829C352.384 159.829 352.384 176.95 352.384 159.829C337.132 159.829 380 159.832 352.384 159.829C367.636 159.829 352.384 159.829 380 159.829C380 176.95 367.636 190.829 352.384 190.829Z" fill="#BD3939"/>
</g>
<g style="mix-blend-mode:screen" opacity="0.2">
<mask id="mask0_1458_10384" style="mask-type:alpha" maskUnits="userSpaceOnUse" x="-15" y="98" width="26" height="30">
<ellipse cx="-1.99563" cy="113.087" rx="12.977" ry="14.3881" fill="#4138B1"/>
</mask>
<g mask="url(#mask0_1458_10384)">
<ellipse cx="11.4805" cy="128.029" rx="13.2266" ry="14.6648" fill="#BD3939"/>
<ellipse cx="11.4805" cy="98.699" rx="13.2266" ry="14.6648" fill="#BD3939"/>
</g>
</g>
<g style="mix-blend-mode:screen" opacity="0.2">
<mask id="mask1_1458_10384" style="mask-type:alpha" maskUnits="userSpaceOnUse" x="353" y="98" width="27" height="30">
<ellipse cx="12.977" cy="14.3881" rx="12.977" ry="14.3881" transform="matrix(-1 0 0 1 379.266 98.699)" fill="#4138B1"/>
</mask>
<g mask="url(#mask1_1458_10384)">
<ellipse cx="13.2266" cy="14.6648" rx="13.2266" ry="14.6648" transform="matrix(-1 0 0 1 366.039 113.364)" fill="#BD3939"/>
<ellipse cx="13.2266" cy="14.6648" rx="13.2266" ry="14.6648" transform="matrix(-1 0 0 1 366.039 84.0342)" fill="#BD3939"/>
<ellipse cx="13.2266" cy="14.6648" rx="13.2266" ry="14.6648" transform="matrix(-1 0 0 1 392.492 84.0342)" fill="#BD3939"/>
<ellipse cx="13.2266" cy="14.6648" rx="13.2266" ry="14.6648" transform="matrix(-1 0 0 1 392.492 113.364)" fill="#BD3939"/>
</g>
</g>
<g style="mix-blend-mode:screen" opacity="0.2">
<mask id="mask2_1458_10384" style="mask-type:alpha" maskUnits="userSpaceOnUse" x="40" y="34" width="27" height="29">
<ellipse cx="53.4419" cy="48.4904" rx="12.977" ry="14.3881" fill="#4138B1"/>
</mask>
<g mask="url(#mask2_1458_10384)">
<ellipse cx="66.918" cy="63.4319" rx="13.2266" ry="14.6648" fill="#BD3939"/>
<ellipse cx="66.918" cy="34.1023" rx="13.2266" ry="14.6648" fill="#BD3939"/>
<ellipse cx="40.4649" cy="34.1023" rx="13.2266" ry="14.6648" fill="#BD3939"/>
<ellipse cx="40.4649" cy="63.4319" rx="13.2266" ry="14.6648" fill="#BD3939"/>
</g>
</g>
<g style="mix-blend-mode:screen" opacity="0.2">
<mask id="mask3_1458_10384" style="mask-type:alpha" maskUnits="userSpaceOnUse" x="297" y="34" width="27" height="29">
<ellipse cx="12.977" cy="14.3881" rx="12.977" ry="14.3881" transform="matrix(-1 0 0 1 323.828 34.1023)" fill="#4138B1"/>
</mask>
<g mask="url(#mask3_1458_10384)">
<ellipse cx="13.2266" cy="14.6648" rx="13.2266" ry="14.6648" transform="matrix(-1 0 0 1 310.602 48.7671)" fill="#BD3939"/>
<ellipse cx="13.2266" cy="14.6648" rx="13.2266" ry="14.6648" transform="matrix(-1 0 0 1 310.602 19.4375)" fill="#BD3939"/>
<ellipse cx="13.2266" cy="14.6648" rx="13.2266" ry="14.6648" transform="matrix(-1 0 0 1 337.055 19.4375)" fill="#BD3939"/>
<ellipse cx="13.2266" cy="14.6648" rx="13.2266" ry="14.6648" transform="matrix(-1 0 0 1 337.055 48.7671)" fill="#BD3939"/>
</g>
</g>
</g>
<defs>
<clipPath id="clip0_1458_10384">
<rect width="375" height="182" fill="white" transform="translate(0 0.828857)"/>
</clipPath>
</defs>
</svg>
