<svg width="1440" height="422" viewBox="0 0 1440 422" fill="none" xmlns="http://www.w3.org/2000/svg">
<g clip-path="url(#clip0_1683_8551)">
<rect width="1440" height="422" fill="#1A1A1A"/>
<g style="mix-blend-mode:soft-light">
<path d="M78.0031 83C78.0031 3.00082 78.0031 47.1836 78.0031 3.00082C121.791 3.00082 -1.28128 3.00821 78.0031 3.00082C34.2155 3.00082 78.0031 3.00081 -1.28125 3C-1.28125 47.1828 34.2155 83 78.0031 83Z" fill="#F0675E"/>
</g>
<g style="mix-blend-mode:soft-light">
<path d="M1362.5 83C1362.5 3.00082 1362.5 47.1836 1362.5 3.00082C1318.71 3.00082 1441.79 3.00821 1362.5 3.00082C1406.29 3.00082 1362.5 3.00081 1441.79 3C1441.79 47.1828 1406.29 83 1362.5 83Z" fill="#F0675E"/>
</g>
<g style="mix-blend-mode:soft-light">
<path d="M158 3.71569C78.0008 3.71569 122.184 3.71569 78.0008 3.71569C78.0008 -40.0718 78.0082 83 78.0008 3.71569C78.0008 47.5032 78.0008 3.71569 78 83C122.183 83 158 47.5032 158 3.71569Z" fill="#CC352B"/>
</g>
<g style="mix-blend-mode:soft-light">
<path d="M1282.5 3.71569C1362.5 3.71569 1318.32 3.71569 1362.5 3.71569C1362.5 -40.0718 1362.5 83 1362.5 3.71569C1362.5 47.5032 1362.5 3.71569 1362.5 83C1318.32 83 1282.5 47.5032 1282.5 3.71569Z" fill="#CC352B"/>
</g>
<g style="mix-blend-mode:soft-light" opacity="0.8">
<path d="M79 162.284C158.999 162.284 114.816 162.284 158.999 162.284C158.999 206.072 158.992 83 158.999 162.284C158.999 118.497 158.999 162.284 159 83C114.817 83 79 118.497 79 162.284Z" fill="#F0675E"/>
</g>
<g style="mix-blend-mode:soft-light" opacity="0.8">
<path d="M1361.5 162.284C1281.5 162.284 1325.69 162.284 1281.5 162.284C1281.5 206.072 1281.51 83 1281.5 162.284C1281.5 118.497 1281.5 162.284 1281.5 83C1325.69 83 1361.5 118.497 1361.5 162.284Z" fill="#F0675E"/>
</g>
<g style="mix-blend-mode:soft-light">
<path d="M161.607 163C161.607 242.999 161.607 198.816 161.607 242.999C118.311 242.999 240 242.992 161.607 242.999C204.902 242.999 161.607 242.999 240 243C240 198.817 204.902 163 161.607 163Z" fill="#CC352B"/>
</g>
<g style="mix-blend-mode:soft-light">
<path d="M1278.9 163C1278.9 242.999 1278.9 198.816 1278.9 242.999C1322.19 242.999 1200.5 242.992 1278.9 242.999C1235.6 242.999 1278.9 242.999 1200.5 243C1200.5 198.817 1235.6 163 1278.9 163Z" fill="#CC352B"/>
</g>
<g style="mix-blend-mode:soft-light" opacity="0.5">
<path d="M324 83.6065C244.001 83.6065 288.184 83.6065 244.001 83.6065C244.001 40.311 244.008 162 244.001 83.6065C244.001 126.902 244.001 83.6065 244 162C288.183 162 324 126.902 324 83.6065Z" fill="#CC352B"/>
</g>
<g style="mix-blend-mode:soft-light" opacity="0.5">
<path d="M1116.5 83.6065C1196.5 83.6065 1152.32 83.6065 1196.5 83.6065C1196.5 40.311 1196.5 162 1196.5 83.6065C1196.5 126.902 1196.5 83.6065 1196.5 162C1152.32 162 1116.5 126.902 1116.5 83.6065Z" fill="#CC352B"/>
</g>
<g style="mix-blend-mode:soft-light" opacity="0.2">
<path d="M82 84.6065C2.00082 84.6065 46.1836 84.6065 2.00082 84.6065C2.00082 41.311 2.00821 163 2.00082 84.6065C2.00082 127.902 2.0008 84.6065 2 163C46.1828 163 82 127.902 82 84.6065Z" fill="#CC352B"/>
</g>
<g style="mix-blend-mode:soft-light" opacity="0.2">
<path d="M1358.5 84.6065C1438.5 84.6065 1394.32 84.6065 1438.5 84.6065C1438.5 41.311 1438.5 163 1438.5 84.6065C1438.5 127.902 1438.5 84.6065 1438.5 163C1394.32 163 1358.5 127.902 1358.5 84.6065Z" fill="#CC352B"/>
</g>
<g style="mix-blend-mode:soft-light" opacity="0.2">
<path d="M162 164.607C82.0008 164.607 126.184 164.607 82.0008 164.607C82.0008 121.311 82.0082 243 82.0008 164.607C82.0008 207.902 82.0008 164.607 82 243C126.183 243 162 207.902 162 164.607Z" fill="#CC352B"/>
</g>
<g style="mix-blend-mode:soft-light" opacity="0.2">
<path d="M1278.5 164.607C1358.5 164.607 1314.32 164.607 1358.5 164.607C1358.5 121.311 1358.5 243 1358.5 164.607C1358.5 207.902 1358.5 164.607 1358.5 243C1314.32 243 1278.5 207.902 1278.5 164.607Z" fill="#CC352B"/>
</g>
<g style="mix-blend-mode:soft-light" opacity="0.2">
<path d="M-6.00001 481.393C73.9992 481.393 29.8164 481.393 73.9992 481.393C73.9992 524.689 73.9918 403 73.9992 481.393C73.9992 438.098 73.9992 481.393 74 403C29.8172 403 -6.00001 438.098 -6.00001 481.393Z" fill="#CC352B"/>
</g>
<g style="mix-blend-mode:soft-light" opacity="0.2">
<path d="M1446.5 481.393C1366.5 481.393 1410.69 481.393 1366.5 481.393C1366.5 524.689 1366.51 403 1366.5 481.393C1366.5 438.098 1366.5 481.393 1366.5 403C1410.69 403 1446.5 438.098 1446.5 481.393Z" fill="#CC352B"/>
</g>
<g style="mix-blend-mode:soft-light">
<path d="M-0.284313 163C-0.284309 242.999 -0.284311 198.816 -0.284309 242.999C-44.0718 242.999 79 242.992 -0.284309 242.999C43.5032 242.999 -0.284309 242.999 79 243C79 198.817 43.5032 163 -0.284313 163Z" fill="#F0675E"/>
</g>
<g style="mix-blend-mode:soft-light">
<path d="M1440.79 163C1440.79 242.999 1440.79 198.816 1440.79 242.999C1484.58 242.999 1361.5 242.992 1440.79 242.999C1397 242.999 1440.79 242.999 1361.5 243C1361.5 198.817 1397 163 1440.79 163Z" fill="#F0675E"/>
</g>
<g style="mix-blend-mode:soft-light">
<path d="M1362.23 323C1362.23 402.999 1362.23 358.816 1362.23 402.999C1406.01 402.999 1282.94 402.992 1362.23 402.999C1318.44 402.999 1362.23 402.999 1282.94 403C1282.94 358.817 1318.44 323 1362.23 323Z" fill="#F0675E"/>
</g>
<g style="mix-blend-mode:soft-light" opacity="0.2">
<path d="M244.716 3.00001C244.716 82.9992 244.716 38.8164 244.716 82.9992C200.928 82.9992 324 82.9918 244.716 82.9992C288.503 82.9992 244.716 82.9992 324 83C324 38.8172 288.503 3.00001 244.716 3.00001Z" fill="#F0675E"/>
</g>
<g style="mix-blend-mode:soft-light" opacity="0.2">
<path d="M1195.79 3.00001C1195.79 82.9992 1195.79 38.8164 1195.79 82.9992C1239.58 82.9992 1116.5 82.9918 1195.79 82.9992C1152 82.9992 1195.79 82.9992 1116.5 83C1116.5 38.8172 1152 3.00001 1195.79 3.00001Z" fill="#F0675E"/>
</g>
<g style="mix-blend-mode:soft-light" opacity="0.2">
<path d="M238.716 243C238.716 322.999 238.716 278.816 238.716 322.999C194.928 322.999 318 322.992 238.716 322.999C282.503 322.999 238.716 322.999 318 323C318 278.817 282.503 243 238.716 243Z" fill="#F0675E"/>
</g>
<g style="mix-blend-mode:soft-light" opacity="0.2">
<path d="M1201.79 243C1201.79 322.999 1201.79 278.816 1201.79 322.999C1245.58 322.999 1122.5 322.992 1201.79 322.999C1158 322.999 1201.79 322.999 1122.5 323C1122.5 278.817 1158 243 1201.79 243Z" fill="#F0675E"/>
</g>
<g style="mix-blend-mode:soft-light" opacity="0.2">
<path d="M158.566 403C158.566 323.001 158.566 367.184 158.566 323.001C202.353 323.001 79.2812 323.008 158.566 323.001C114.778 323.001 158.566 323.001 79.2812 323C79.2812 367.183 114.778 403 158.566 403Z" fill="#F0675E"/>
</g>
<g style="mix-blend-mode:soft-light" opacity="0.2">
<path d="M1281.93 403C1281.93 323.001 1281.93 367.184 1281.93 323.001C1238.15 323.001 1361.22 323.008 1281.93 323.001C1325.72 323.001 1281.93 323.001 1361.22 323C1361.22 367.183 1325.72 403 1281.93 403Z" fill="#F0675E"/>
</g>
<g style="mix-blend-mode:soft-light" opacity="0.2">
<path d="M324.999 83C324.999 3.00082 324.999 47.1836 324.999 3.00082C368.787 3.00082 245.715 3.00821 324.999 3.00082C281.212 3.00082 324.999 3.00081 245.715 3C245.715 47.1828 281.212 83 324.999 83Z" fill="#F0675E"/>
</g>
<g style="mix-blend-mode:soft-light" opacity="0.2">
<path d="M1115.5 83C1115.5 3.00082 1115.5 47.1836 1115.5 3.00082C1071.72 3.00082 1194.79 3.00821 1115.5 3.00082C1159.29 3.00082 1115.5 3.00081 1194.79 3C1194.79 47.1828 1159.29 83 1115.5 83Z" fill="#F0675E"/>
</g>
<g style="mix-blend-mode:soft-light" opacity="0.2">
<path d="M318.999 323C318.999 243.001 318.999 287.184 318.999 243.001C362.787 243.001 239.715 243.008 318.999 243.001C275.212 243.001 318.999 243.001 239.715 243C239.715 287.183 275.212 323 318.999 323Z" fill="#F0675E"/>
</g>
<g style="mix-blend-mode:soft-light" opacity="0.2">
<path d="M1121.5 323C1121.5 243.001 1121.5 287.184 1121.5 243.001C1077.72 243.001 1200.79 243.008 1121.5 243.001C1165.29 243.001 1121.5 243.001 1200.79 243C1200.79 287.183 1165.29 323 1121.5 323Z" fill="#F0675E"/>
</g>
<g style="mix-blend-mode:soft-light" opacity="0.5">
<path d="M78.2843 403C78.2843 323.001 78.2843 367.184 78.2843 323.001C122.072 323.001 -1.00003 323.008 78.2843 323.001C34.4968 323.001 78.2843 323.001 -1 323C-1 367.183 34.4968 403 78.2843 403Z" fill="#F0675E"/>
</g>
<g style="mix-blend-mode:soft-light" opacity="0.5">
<path d="M1362.22 403C1362.22 323.001 1362.22 367.184 1362.22 323.001C1318.43 323.001 1441.5 323.008 1362.22 323.001C1406.01 323.001 1362.22 323.001 1441.5 323C1441.5 367.183 1406.01 403 1362.22 403Z" fill="#F0675E"/>
</g>
<g style="mix-blend-mode:soft-light" opacity="0.2">
<path d="M238.284 483C238.284 403.001 238.284 447.184 238.284 403.001C282.072 403.001 159 403.008 238.284 403.001C194.497 403.001 238.284 403.001 159 403C159 447.183 194.497 483 238.284 483Z" fill="#F0675E"/>
</g>
<g style="mix-blend-mode:soft-light" opacity="0.2">
<path d="M1202.22 483C1202.22 403.001 1202.22 447.184 1202.22 403.001C1158.43 403.001 1281.5 403.008 1202.22 403.001C1246.01 403.001 1202.22 403.001 1281.5 403C1281.5 447.183 1246.01 483 1202.22 483Z" fill="#F0675E"/>
</g>
<g style="mix-blend-mode:soft-light">
<rect x="-1" y="243" width="80" height="80" fill="#F0675E"/>
</g>
<g style="mix-blend-mode:soft-light">
<rect width="80" height="80" transform="matrix(-1 0 0 1 1441.5 243)" fill="#F0675E"/>
</g>
<g style="mix-blend-mode:color-burn">
<mask id="mask0_1683_8551" style="mask-type:alpha" maskUnits="userSpaceOnUse" x="2" y="246" width="74" height="74">
<circle cx="38.7516" cy="282.752" r="36.7516" fill="#4138B1"/>
</mask>
<g mask="url(#mask0_1683_8551)">
<circle cx="76.9193" cy="320.916" r="37.4584" fill="#DB5A51"/>
<circle cx="76.9193" cy="246.001" r="37.4584" fill="#E04F46"/>
<circle cx="1.99742" cy="246.001" r="37.4584" fill="#DB3F2D"/>
<circle cx="1.99742" cy="320.916" r="37.4584" fill="#ED554B"/>
</g>
</g>
<g style="mix-blend-mode:color-burn">
<mask id="mask1_1683_8551" style="mask-type:alpha" maskUnits="userSpaceOnUse" x="1365" y="246" width="74" height="74">
<circle cx="36.7516" cy="36.7516" r="36.7516" transform="matrix(-1 0 0 1 1438.5 246)" fill="#4138B1"/>
</mask>
<g mask="url(#mask1_1683_8551)">
<circle cx="37.4584" cy="37.4584" r="37.4584" transform="matrix(-1 0 0 1 1401.04 283.458)" fill="#DB5A51"/>
<circle cx="37.4584" cy="37.4584" r="37.4584" transform="matrix(-1 0 0 1 1401.04 208.542)" fill="#E04F46"/>
<circle cx="37.4584" cy="37.4584" r="37.4584" transform="matrix(-1 0 0 1 1475.96 208.542)" fill="#DB3F2D"/>
<circle cx="37.4584" cy="37.4584" r="37.4584" transform="matrix(-1 0 0 1 1475.96 283.458)" fill="#ED554B"/>
</g>
</g>
<g style="mix-blend-mode:soft-light" opacity="0.2">
<mask id="mask2_1683_8551" style="mask-type:alpha" maskUnits="userSpaceOnUse" x="162" y="246" width="74" height="74">
<circle cx="198.752" cy="282.752" r="36.7516" fill="#4138B1"/>
</mask>
<g mask="url(#mask2_1683_8551)">
<circle cx="236.919" cy="320.916" r="37.4584" fill="#DB5A51"/>
<circle cx="236.919" cy="246.001" r="37.4584" fill="#E04F46"/>
<circle cx="161.997" cy="246.001" r="37.4584" fill="#DB3F2D"/>
<circle cx="161.997" cy="320.916" r="37.4584" fill="#ED554B"/>
</g>
</g>
<g style="mix-blend-mode:soft-light" opacity="0.2">
<mask id="mask3_1683_8551" style="mask-type:alpha" maskUnits="userSpaceOnUse" x="1205" y="246" width="74" height="74">
<circle cx="36.7516" cy="36.7516" r="36.7516" transform="matrix(-1 0 0 1 1278.5 246)" fill="#4138B1"/>
</mask>
<g mask="url(#mask3_1683_8551)">
<circle cx="37.4584" cy="37.4584" r="37.4584" transform="matrix(-1 0 0 1 1241.04 283.458)" fill="#DB5A51"/>
<circle cx="37.4584" cy="37.4584" r="37.4584" transform="matrix(-1 0 0 1 1241.04 208.542)" fill="#E04F46"/>
<circle cx="37.4584" cy="37.4584" r="37.4584" transform="matrix(-1 0 0 1 1315.96 208.542)" fill="#DB3F2D"/>
<circle cx="37.4584" cy="37.4584" r="37.4584" transform="matrix(-1 0 0 1 1315.96 283.458)" fill="#ED554B"/>
</g>
</g>
<g style="mix-blend-mode:soft-light" opacity="0.2">
<mask id="mask4_1683_8551" style="mask-type:alpha" maskUnits="userSpaceOnUse" x="319" y="81" width="74" height="74">
<circle cx="355.752" cy="117.752" r="36.7516" fill="#4138B1"/>
</mask>
<g mask="url(#mask4_1683_8551)">
<circle cx="393.919" cy="155.916" r="37.4584" fill="#DB5A51"/>
<circle cx="393.919" cy="81.0006" r="37.4584" fill="#E04F46"/>
<circle cx="318.997" cy="81.0006" r="37.4584" fill="#DB3F2D"/>
<circle cx="318.997" cy="155.916" r="37.4584" fill="#ED554B"/>
</g>
</g>
<g style="mix-blend-mode:soft-light" opacity="0.2">
<mask id="mask5_1683_8551" style="mask-type:alpha" maskUnits="userSpaceOnUse" x="1048" y="81" width="74" height="74">
<circle cx="36.7516" cy="36.7516" r="36.7516" transform="matrix(-1 0 0 1 1121.5 81)" fill="#4138B1"/>
</mask>
<g mask="url(#mask5_1683_8551)">
<circle cx="37.4584" cy="37.4584" r="37.4584" transform="matrix(-1 0 0 1 1084.04 118.458)" fill="#DB5A51"/>
<circle cx="37.4584" cy="37.4584" r="37.4584" transform="matrix(-1 0 0 1 1084.04 43.5422)" fill="#E04F46"/>
<circle cx="37.4584" cy="37.4584" r="37.4584" transform="matrix(-1 0 0 1 1158.96 43.5422)" fill="#DB3F2D"/>
<circle cx="37.4584" cy="37.4584" r="37.4584" transform="matrix(-1 0 0 1 1158.96 118.458)" fill="#ED554B"/>
</g>
</g>
</g>
<defs>
<clipPath id="clip0_1683_8551">
<rect width="1440" height="422" fill="white"/>
</clipPath>
</defs>
</svg>
