<svg width="1440" height="491" viewBox="0 0 1440 491" fill="none" xmlns="http://www.w3.org/2000/svg">
<path d="M87.2376 88.294C87.2376 9.44557 87.2376 52.9928 87.2376 9.44557C130.395 9.44558 9.09372 9.45285 87.2376 9.44557C44.0799 9.44557 87.2377 9.44556 9.09375 9.44476C9.09375 52.992 44.0799 88.294 87.2376 88.294Z" fill="#F0675E"/>
<path d="M1353.26 88.294C1353.26 9.44557 1353.26 52.9928 1353.26 9.44557C1310.1 9.44558 1431.41 9.45285 1353.26 9.44557C1396.42 9.44557 1353.26 9.44556 1431.41 9.44476C1431.41 52.992 1396.42 88.294 1353.26 88.294Z" fill="#F0675E"/>
<path d="M166.088 10.1502C87.2391 10.1502 130.786 10.1502 87.2391 10.1502C87.2391 -33.0075 87.2464 88.2941 87.2391 10.1502C87.2391 53.3079 87.2391 10.1502 87.2383 88.2941C130.786 88.2941 166.088 53.3079 166.088 10.1502Z" fill="#D81D1D"/>
<path d="M1274.42 10.1502C1353.26 10.1502 1309.72 10.1502 1353.26 10.1502C1353.26 -33.0075 1353.26 88.2941 1353.26 10.1502C1353.26 53.3079 1353.26 10.1502 1353.27 88.2941C1309.72 88.2941 1274.42 53.3079 1274.42 10.1502Z" fill="#D81D1D"/>
<path opacity="0.2" d="M91.1813 89.8774C12.3328 89.8774 55.8801 89.8774 12.3328 89.8774C12.3328 47.2047 12.3401 167.143 12.3328 89.8774C12.3328 132.55 12.3328 89.8774 12.332 167.143C55.8793 167.143 91.1813 132.55 91.1813 89.8774Z" fill="#D81D1D"/>
<path opacity="0.2" d="M1349.32 89.8774C1428.17 89.8774 1384.62 89.8774 1428.17 89.8774C1428.17 47.2047 1428.16 167.143 1428.17 89.8774C1428.17 132.55 1428.17 89.8774 1428.17 167.143C1384.62 167.143 1349.32 132.55 1349.32 89.8774Z" fill="#D81D1D"/>
<path opacity="0.2" d="M170.029 168.727C91.1805 168.727 134.728 168.727 91.1805 168.727C91.1805 126.054 91.1878 245.993 91.1805 168.727C91.1805 211.4 91.1805 168.727 91.1797 245.993C134.727 245.993 170.029 211.4 170.029 168.727Z" fill="#D81D1D"/>
<path opacity="0.2" d="M1270.47 168.727C1349.32 168.727 1305.78 168.727 1349.32 168.727C1349.32 126.054 1349.32 245.993 1349.32 168.727C1349.32 211.4 1349.32 168.727 1349.32 245.993C1305.78 245.993 1270.47 211.4 1270.47 168.727Z" fill="#D81D1D"/>
<path opacity="0.2" d="M4.44757 480.957C83.2961 480.957 39.7488 480.957 83.2961 480.957C83.2961 523.63 83.2888 403.691 83.2961 480.957C83.2961 438.285 83.2961 480.957 83.2969 403.691C39.7496 403.691 4.44758 438.285 4.44757 480.957Z" fill="#D81D1D"/>
<path opacity="0.2" d="M1436.06 480.957C1357.21 480.957 1400.76 480.957 1357.21 480.957C1357.21 523.63 1357.22 403.691 1357.21 480.957C1357.21 438.285 1357.21 480.957 1357.21 403.691C1400.75 403.691 1436.06 438.285 1436.06 480.957Z" fill="#D81D1D"/>
<path d="M10.0788 167.143C10.0788 245.992 10.0788 202.445 10.0788 245.992C-33.0789 245.992 88.2227 245.985 10.0788 245.992C53.2364 245.992 10.0788 245.992 88.2227 245.993C88.2227 202.445 53.2364 167.143 10.0788 167.143Z" fill="#F0675E"/>
<path d="M1430.43 167.143C1430.43 245.992 1430.43 202.445 1430.43 245.992C1473.58 245.992 1352.28 245.985 1430.43 245.992C1387.27 245.992 1430.43 245.992 1352.28 245.993C1352.28 202.445 1387.27 167.143 1430.43 167.143Z" fill="#F0675E"/>
<path d="M1352.99 324.843C1352.99 403.691 1352.99 360.144 1352.99 403.691C1396.15 403.691 1274.85 403.684 1352.99 403.691C1309.83 403.691 1352.99 403.691 1274.85 403.692C1274.85 360.145 1309.83 324.843 1352.99 324.843Z" fill="#F0675E"/>
<path opacity="0.2" d="M245.641 245.993C245.641 324.841 245.641 281.294 245.641 324.841C202.484 324.841 323.785 324.834 245.641 324.841C288.799 324.841 245.641 324.841 323.785 324.842C323.785 281.295 288.799 245.993 245.641 245.993Z" fill="#F0675E"/>
<path opacity="0.2" d="M1194.86 245.993C1194.86 324.841 1194.86 281.294 1194.86 324.841C1238.02 324.841 1116.72 324.834 1194.86 324.841C1151.7 324.841 1194.86 324.841 1116.72 324.842C1116.72 281.295 1151.7 245.993 1194.86 245.993Z" fill="#F0675E"/>
<path opacity="0.2" d="M166.644 403.691C166.644 324.843 166.644 368.39 166.644 324.843C209.802 324.843 88.5 324.85 166.644 324.843C123.486 324.843 166.644 324.843 88.5 324.842C88.5 368.389 123.486 403.691 166.644 403.691Z" fill="#F0675E"/>
<path opacity="0.2" d="M1273.86 403.692C1273.86 324.843 1273.86 368.39 1273.86 324.843C1230.7 324.843 1352 324.85 1273.86 324.843C1317.01 324.843 1273.86 324.843 1352 324.842C1352 368.39 1317.01 403.692 1273.86 403.692Z" fill="#F0675E"/>
<path opacity="0.2" d="M324.773 324.842C324.773 245.993 324.773 289.541 324.773 245.993C367.93 245.993 246.629 246.001 324.773 245.993C281.615 245.993 324.773 245.993 246.629 245.993C246.629 289.54 281.615 324.842 324.773 324.842Z" fill="#F0675E"/>
<path opacity="0.2" d="M1115.73 324.842C1115.73 245.993 1115.73 289.541 1115.73 245.993C1072.57 245.993 1193.88 246.001 1115.73 245.993C1158.89 245.993 1115.73 245.993 1193.88 245.993C1193.88 289.54 1158.89 324.842 1115.73 324.842Z" fill="#F0675E"/>
<path opacity="0.5" d="M87.5189 403.691C87.5189 324.843 87.5189 368.39 87.5189 324.843C130.677 324.843 9.37497 324.85 87.5189 324.843C44.3612 324.843 87.5189 324.843 9.375 324.842C9.375 368.389 44.3612 403.691 87.5189 403.691Z" fill="#F0675E"/>
<path opacity="0.5" d="M1352.99 403.692C1352.99 324.843 1352.99 368.39 1352.99 324.843C1309.83 324.843 1431.13 324.85 1352.99 324.843C1396.14 324.843 1352.98 324.843 1431.13 324.842C1431.13 368.39 1396.14 403.692 1352.99 403.692Z" fill="#F0675E"/>
<path opacity="0.2" d="M245.218 482.541C245.218 403.692 245.218 447.239 245.218 403.692C288.376 403.692 167.074 403.699 245.218 403.692C202.06 403.692 245.218 403.692 167.074 403.691C167.074 447.239 202.06 482.541 245.218 482.541Z" fill="#F0675E"/>
<path opacity="0.2" d="M1195.29 482.541C1195.29 403.692 1195.29 447.239 1195.29 403.692C1152.13 403.692 1273.43 403.699 1195.29 403.692C1238.44 403.692 1195.29 403.692 1273.43 403.691C1273.43 447.239 1238.44 482.541 1195.29 482.541Z" fill="#F0675E"/>
<rect x="9.375" y="245.993" width="78.8493" height="78.8493" fill="#F0675E"/>
<rect width="78.8493" height="78.8493" transform="matrix(-1 0 0 1 1431.13 245.993)" fill="#F0675E"/>
</svg>
