<svg width="375" height="283" viewBox="0 0 375 283" fill="none" xmlns="http://www.w3.org/2000/svg">
<path d="M35.0871 54.6405C35.0871 10.02 35.0871 34.6635 35.0871 10.02C59.5101 10.02 -9.13478 10.0241 35.0871 10.02C10.664 10.02 35.0871 10.02 -9.13477 10.0195C-9.13477 34.663 10.664 54.6405 35.0871 54.6405Z" fill="#F0675E"/>
<path d="M334.087 50.1142C334.087 5.49362 334.087 30.1371 334.087 5.49362C309.664 5.49362 378.309 5.49774 334.087 5.49362C358.51 5.49362 334.087 5.49361 378.309 5.49316C378.309 30.1367 358.51 50.1142 334.087 50.1142Z" fill="#F0675E"/>
<path d="M79.703 10.4188C35.0825 10.4188 59.726 10.4188 35.0825 10.4188C35.0825 -14.0042 35.0866 54.6406 35.0825 10.4188C35.0825 34.8418 35.0825 10.4188 35.082 54.6406C59.7255 54.6406 79.703 34.8418 79.703 10.4188Z" fill="#CC352B"/>
<path d="M289.471 5.89145C334.091 5.89145 309.448 5.89145 334.091 5.89145C334.091 -18.5316 334.087 50.1133 334.091 5.89145C334.091 30.3145 334.091 5.89145 334.092 50.1133C309.448 50.1133 289.471 30.3145 289.471 5.89145Z" fill="#CC352B"/>
<path opacity="0.2" d="M37.3144 55.5377C-7.30618 55.5377 17.3373 55.5377 -7.30618 55.5377C-7.30618 31.3891 -7.30206 99.2627 -7.30618 55.5377C-7.30618 79.6864 -7.30619 55.5377 -7.30664 99.2627C17.3369 99.2627 37.3144 79.6864 37.3144 55.5377Z" fill="#CC352B"/>
<path opacity="0.2" d="M331.864 51.0104C376.485 51.0104 351.841 51.0104 376.485 51.0104C376.485 26.8618 376.481 94.7354 376.485 51.0104C376.485 75.159 376.485 51.0104 376.485 94.7354C351.842 94.7354 331.864 75.159 331.864 51.0104Z" fill="#CC352B"/>
<path opacity="0.2" d="M81.9335 100.159C37.313 100.159 61.9565 100.159 37.313 100.159C37.313 76.0102 37.3171 143.884 37.313 100.159C37.313 124.307 37.3129 100.159 37.3125 143.884C61.956 143.884 81.9335 124.307 81.9335 100.159Z" fill="#CC352B"/>
<path opacity="0.2" d="M287.24 95.6315C331.861 95.6315 307.217 95.6315 331.861 95.6315C331.861 71.4829 331.857 139.356 331.861 95.6315C331.861 119.78 331.861 95.6315 331.861 139.356C307.218 139.356 287.24 119.78 287.24 95.6315Z" fill="#CC352B"/>
<path opacity="0.2" d="M-11.7704 276.85C32.8501 276.85 8.20662 276.85 32.8501 276.85C32.8501 300.999 32.846 233.125 32.8501 276.85C32.8501 252.701 32.8501 276.85 32.8506 233.125C8.20708 233.125 -11.7704 252.701 -11.7704 276.85Z" fill="#CC352B"/>
<path opacity="0.2" d="M380.94 272.324C336.32 272.324 360.963 272.324 336.32 272.324C336.32 296.472 336.324 228.599 336.32 272.324C336.32 248.175 336.32 272.324 336.319 228.599C360.963 228.599 380.94 248.175 380.94 272.324Z" fill="#CC352B"/>
<path d="M-8.58218 99.2628C-8.58218 143.883 -8.58218 119.24 -8.58218 143.883C-33.0052 143.883 35.6396 143.879 -8.58218 143.883C15.8409 143.883 -8.58218 143.883 35.6396 143.884C35.6396 119.24 15.8409 99.2628 -8.58218 99.2628Z" fill="#F0675E"/>
<path d="M377.756 94.7354C377.756 139.356 377.756 114.712 377.756 139.356C402.179 139.356 333.534 139.352 377.756 139.356C353.333 139.356 377.756 139.356 333.534 139.356C333.534 114.713 353.333 94.7354 377.756 94.7354Z" fill="#F0675E"/>
<path d="M333.939 183.978C333.939 228.598 333.939 203.955 333.939 228.598C358.362 228.598 289.717 228.594 333.939 228.598C309.516 228.598 333.939 228.598 289.717 228.599C289.717 203.955 309.516 183.978 333.939 183.978Z" fill="#F0675E"/>
<path opacity="0.2" d="M80.0158 233.125C80.0158 188.504 80.0158 213.148 80.0158 188.504C104.439 188.504 35.7939 188.508 80.0158 188.504C55.5927 188.504 80.0158 188.504 35.7939 188.504C35.7939 213.147 55.5927 233.125 80.0158 233.125Z" fill="#F0675E"/>
<path opacity="0.2" d="M289.149 228.599C289.149 183.978 289.149 208.621 289.149 183.978C264.726 183.978 333.371 183.982 289.149 183.978C313.572 183.978 289.149 183.978 333.371 183.978C333.371 208.621 313.572 228.599 289.149 228.599Z" fill="#F0675E"/>
<path opacity="0.5" d="M35.2414 233.125C35.2414 188.504 35.2414 213.148 35.2414 188.504C59.6644 188.504 -8.98049 188.508 35.2414 188.504C10.8183 188.504 35.2414 188.504 -8.98047 188.504C-8.98047 213.147 10.8183 233.125 35.2414 233.125Z" fill="#F0675E"/>
<path opacity="0.5" d="M333.932 228.599C333.932 183.978 333.932 208.621 333.932 183.978C309.509 183.978 378.154 183.982 333.932 183.978C358.356 183.978 333.932 183.978 378.154 183.978C378.154 208.621 358.356 228.599 333.932 228.599Z" fill="#F0675E"/>
<path opacity="0.2" d="M124.485 277.746C124.486 233.125 124.485 257.769 124.486 233.125C148.909 233.125 80.2637 233.13 124.486 233.125C100.062 233.125 124.486 233.125 80.2637 233.125C80.2637 257.768 100.062 277.746 124.485 277.746Z" fill="#F0675E"/>
<path opacity="0.2" d="M244.692 273.22C244.692 228.599 244.692 253.243 244.692 228.599C220.269 228.599 288.914 228.603 244.692 228.599C269.115 228.599 244.692 228.599 288.914 228.599C288.914 253.242 269.115 273.22 244.692 273.22Z" fill="#F0675E"/>
<rect x="-8.98047" y="143.884" width="44.621" height="44.621" fill="#F0675E"/>
<rect width="44.621" height="44.621" transform="matrix(-1 0 0 1 378.154 139.356)" fill="#F0675E"/>
</svg>
