<svg width="1441" height="563" viewBox="0 0 1441 563" fill="none" xmlns="http://www.w3.org/2000/svg">
<path d="M66.0485 88C66.0485 15.0007 66.0485 55.3175 66.0485 15.0008C106.392 15.0008 -7.00003 15.0075 66.0485 15.0008C25.7049 15.0007 66.0485 15.0007 -7 15C-7 55.3168 25.7049 88 66.0485 88Z" fill="#F0675E"/>
<path d="M139 14.9515C65.0008 14.9515 105.87 14.9515 65.0008 14.9515C65.0008 -25.392 65.0076 88 65.0008 14.9515C65.0008 55.2951 65.0007 14.9515 65 88C105.869 88 139 55.2951 139 14.9515Z" fill="#CE4545"/>
<path opacity="0.2" d="M69 89.0607C-3.99925 89.0607 36.3175 89.0607 -3.99925 89.0607C-3.99925 48.2251 -3.99251 163 -3.99925 89.0607C-3.99925 129.896 -3.99927 89.0607 -4 163C36.3168 163 69 129.896 69 89.0607Z" fill="#CE4545"/>
<path opacity="0.2" d="M143 161.842C69.0008 161.842 109.87 161.842 69.0008 161.842C69.0008 121.991 69.0076 234 69.0008 161.842C69.0008 201.694 69.0007 161.842 69 234C109.869 234 143 201.694 143 161.842Z" fill="#CE4545"/>
<path opacity="0.2" d="M141 377.842C67.0008 377.842 107.87 377.842 67.0008 377.842C67.0008 337.991 67.0076 450 67.0008 377.842C67.0008 417.694 67.0007 377.842 67 450C107.869 450 141 417.694 141 377.842Z" fill="#CE4545"/>
<path opacity="0.2" d="M1451 412.842C1377 412.842 1417.87 412.842 1377 412.842C1377 372.991 1377.01 485 1377 412.842C1377 452.694 1377 412.842 1377 485C1417.87 485 1451 452.694 1451 412.842Z" fill="#CE4545"/>
<path d="M-6.04847 163C-6.04847 233.999 -6.04847 194.787 -6.04847 233.999C-46.392 233.999 67 233.993 -6.04847 233.999C34.2951 233.999 -6.04847 233.999 67 234C67 194.788 34.2951 163 -6.04847 163Z" fill="#F0675E"/>
<path opacity="0.5" d="M67.2143 353C67.2143 306 67.2143 331.958 67.2143 306C93.29 306 20 306.005 67.2143 306C41.1385 306 67.2143 306 20 306C20 331.957 41.1385 353 67.2143 353Z" fill="#F0675E"/>
<path opacity="0.5" d="M141.367 378C141.367 413 141.367 393.67 141.367 413C121.687 413 177 412.996 141.367 413C161.046 413 141.367 413 177 413C177 393.67 161.046 378 141.367 378Z" fill="#F0675E"/>
<rect x="-7" y="234" width="74" height="72" fill="#F0675E"/>
<rect x="-9" y="450" width="74" height="72" fill="#F0675E"/>
<rect x="1301" y="485" width="74" height="72" fill="#F0675E"/>
<rect x="67" y="306" width="74" height="72" fill="#F0675E"/>
<path opacity="0.5" d="M1315 337.073C1373 337.073 1340.97 337.073 1373 337.073C1373 370.037 1372.99 277.387 1373 337.073C1373 304.11 1373 336.686 1373 277C1340.97 277 1315 304.11 1315 337.073Z" fill="#F0675E"/>
<path d="M1453.58 338.542C1453.58 414.583 1453.58 372.586 1453.58 414.583C1411.55 414.583 1529.67 414.576 1453.58 414.583C1495.6 414.583 1453.58 414.583 1529.67 414.583C1529.67 372.587 1495.6 338.542 1453.58 338.542Z" fill="#F0675E"/>
<path d="M1377.58 414.634C1454.67 414.634 1412.1 414.634 1454.67 414.634C1454.67 456.658 1454.66 338.542 1454.67 414.634C1454.67 372.609 1454.67 414.634 1454.67 338.542C1412.1 338.542 1377.58 372.609 1377.58 414.634Z" fill="#CE4545"/>
<path opacity="0.7" d="M1450 261C1372.92 261 1415.49 261 1372.92 261C1372.92 218.975 1372.93 337.092 1372.92 261C1372.92 303.025 1372.92 261 1372.92 337.092C1415.49 337.092 1450 303.025 1450 261Z" fill="#CE4545"/>
<path opacity="0.2" d="M1373.42 261.623C1450.5 261.623 1407.93 261.623 1450.5 261.623C1450.5 303.135 1450.49 186.458 1450.5 261.623C1450.5 220.111 1450.5 261.623 1450.5 186.458C1407.93 186.458 1373.42 220.111 1373.42 261.623Z" fill="#CE4545"/>
<path opacity="0.5" d="M1452.36 62.5C1452.36 111.458 1452.36 84.4189 1452.36 111.458C1425.2 111.458 1501.54 111.453 1452.36 111.458C1479.52 111.458 1452.36 111.458 1501.54 111.458C1501.54 84.4194 1479.52 62.5 1452.36 62.5Z" fill="#F0675E"/>
<path opacity="0.5" d="M1375.12 36.4583C1375.12 0.000372475 1375.12 20.1358 1375.12 0.000373721C1395.62 0.000373966 1338 0.00373935 1375.12 0.000373721C1354.62 0.000373477 1375.12 0.000366505 1338 0C1338 20.1354 1354.62 36.4583 1375.12 36.4583Z" fill="#F0675E"/>
<rect x="1452.58" y="111.458" width="77.0833" height="75" transform="rotate(180 1452.58 111.458)" fill="#F0675E"/>
</svg>
