<svg width="375" height="558" viewBox="0 0 375 558" fill="none" xmlns="http://www.w3.org/2000/svg">
<g clip-path="url(#clip0_816_2418)">
<rect y="-58" width="375" height="616" rx="16" fill="#CE0B16"/>
<g style="mix-blend-mode:soft-light">
<path d="M79.0011 22C79.0011 -57.9992 79.0011 -13.8164 79.0011 -57.9992C122.789 -57.9992 -0.283234 -57.9918 79.0011 -57.9992C35.2136 -57.9992 79.0011 -57.9992 -0.283203 -58C-0.283205 -13.8172 35.2136 22 79.0011 22Z" fill="#F0675E"/>
</g>
<g style="mix-blend-mode:soft-light">
<path d="M159 -57.2843C79.0008 -57.2843 123.184 -57.2843 79.0008 -57.2843C79.0008 -101.072 79.0082 22 79.0008 -57.2843C79.0008 -13.4968 79.0008 -57.2843 79 22C123.183 22 159 -13.4968 159 -57.2843Z" fill="#CC352B"/>
</g>
<g style="mix-blend-mode:soft-light" opacity="0.8">
<path d="M80 101.284C159.999 101.284 115.816 101.284 159.999 101.284C159.999 145.072 159.992 22 159.999 101.284C159.999 57.4968 159.999 101.284 160 22C115.817 22 80 57.4968 80 101.284Z" fill="#F0675E"/>
</g>
<g style="mix-blend-mode:soft-light">
<path d="M162.607 102C162.607 181.999 162.607 137.816 162.607 181.999C119.311 181.999 241 181.992 162.607 181.999C205.902 181.999 162.607 181.999 241 182C241 137.817 205.902 102 162.607 102Z" fill="#CC352B"/>
</g>
<g style="mix-blend-mode:soft-light" opacity="0.5">
<path d="M325 22.6065C245.001 22.6065 289.184 22.6065 245.001 22.6065C245.001 -20.689 245.008 101 245.001 22.6065C245.001 65.902 245.001 22.6065 245 101C289.183 101 325 65.902 325 22.6065Z" fill="#CC352B"/>
</g>
<g style="mix-blend-mode:soft-light" opacity="0.2">
<path d="M83 23.6065C3.00082 23.6065 47.1836 23.6065 3.00082 23.6065C3.00082 -19.689 3.00821 102 3.00082 23.6065C3.00082 66.902 3.0008 23.6065 3 102C47.1828 102 83 66.902 83 23.6065Z" fill="#CC352B"/>
</g>
<g style="mix-blend-mode:soft-light" opacity="0.2">
<path d="M163 103.607C83.0008 103.607 127.184 103.607 83.0008 103.607C83.0008 60.311 83.0082 182 83.0008 103.607C83.0008 146.902 83.0008 103.607 83 182C127.183 182 163 146.902 163 103.607Z" fill="#CC352B"/>
</g>
<g style="mix-blend-mode:soft-light" opacity="0.2">
<path d="M-5.00001 420.393C74.9992 420.393 30.8164 420.393 74.9992 420.393C74.9992 463.689 74.9918 342 74.9992 420.393C74.9992 377.098 74.9992 420.393 75 342C30.8172 342 -5.00001 377.098 -5.00001 420.393Z" fill="#CC352B"/>
</g>
<g style="mix-blend-mode:soft-light">
<path d="M0.715687 102C0.715691 181.999 0.715689 137.816 0.715691 181.999C-43.0718 181.999 80 181.992 0.715691 181.999C44.5032 181.999 0.715691 181.999 80 182C80 137.817 44.5032 102 0.715687 102Z" fill="#F0675E"/>
</g>
<g style="mix-blend-mode:soft-light" opacity="0.2">
<path d="M245.716 -58C245.716 21.9992 245.716 -22.1836 245.716 21.9992C201.928 21.9992 325 21.9918 245.716 21.9992C289.503 21.9992 245.716 21.9992 325 22C325 -22.1828 289.503 -58 245.716 -58Z" fill="#F0675E"/>
</g>
<g style="mix-blend-mode:soft-light" opacity="0.2">
<path d="M239.716 182C239.716 261.999 239.716 217.816 239.716 261.999C195.928 261.999 319 261.992 239.716 261.999C283.503 261.999 239.716 261.999 319 262C319 217.817 283.503 182 239.716 182Z" fill="#F0675E"/>
</g>
<g style="mix-blend-mode:soft-light" opacity="0.2">
<path d="M159.564 342C159.564 262.001 159.564 306.184 159.564 262.001C203.351 262.001 80.2793 262.008 159.564 262.001C115.776 262.001 159.564 262.001 80.2793 262C80.2793 306.183 115.776 342 159.564 342Z" fill="#F0675E"/>
</g>
<g style="mix-blend-mode:soft-light" opacity="0.2">
<path d="M325.999 22C325.999 -57.9992 325.999 -13.8164 325.999 -57.9992C369.787 -57.9992 246.715 -57.9918 325.999 -57.9992C282.212 -57.9992 325.999 -57.9992 246.715 -58C246.715 -13.8172 282.212 22 325.999 22Z" fill="#F0675E"/>
</g>
<g style="mix-blend-mode:soft-light" opacity="0.2">
<path d="M319.999 262C319.999 182.001 319.999 226.184 319.999 182.001C363.787 182.001 240.715 182.008 319.999 182.001C276.212 182.001 319.999 182.001 240.715 182C240.715 226.183 276.212 262 319.999 262Z" fill="#F0675E"/>
</g>
<g style="mix-blend-mode:soft-light" opacity="0.5">
<path d="M79.2843 342C79.2843 262.001 79.2843 306.184 79.2843 262.001C123.072 262.001 -3.05179e-05 262.008 79.2843 262.001C35.4968 262.001 79.2843 262.001 0 262C-1.93129e-06 306.183 35.4968 342 79.2843 342Z" fill="#F0675E"/>
</g>
<g style="mix-blend-mode:soft-light" opacity="0.2">
<path d="M239.284 422C239.284 342.001 239.284 386.184 239.284 342.001C283.072 342.001 160 342.008 239.284 342.001C195.497 342.001 239.284 342.001 160 342C160 386.183 195.497 422 239.284 422Z" fill="#F0675E"/>
</g>
<g style="mix-blend-mode:soft-light">
<rect y="182" width="80" height="80" fill="#F0675E"/>
</g>
<g style="mix-blend-mode:color-burn">
<mask id="mask0_816_2418" style="mask-type:alpha" maskUnits="userSpaceOnUse" x="3" y="185" width="74" height="74">
<circle cx="39.7516" cy="221.752" r="36.7516" fill="#4138B1"/>
</mask>
<g mask="url(#mask0_816_2418)">
<circle cx="77.9183" cy="259.916" r="37.4584" fill="#DB5A51"/>
<circle cx="77.9183" cy="185.001" r="37.4584" fill="#E04F46"/>
<circle cx="2.99839" cy="185.001" r="37.4584" fill="#DB3F2D"/>
<circle cx="2.99839" cy="259.916" r="37.4584" fill="#ED554B"/>
</g>
</g>
<g style="mix-blend-mode:soft-light" opacity="0.2">
<mask id="mask1_816_2418" style="mask-type:alpha" maskUnits="userSpaceOnUse" x="163" y="185" width="74" height="74">
<circle cx="199.752" cy="221.752" r="36.7516" fill="#4138B1"/>
</mask>
<g mask="url(#mask1_816_2418)">
<circle cx="237.918" cy="259.916" r="37.4584" fill="#DB5A51"/>
<circle cx="237.918" cy="185.001" r="37.4584" fill="#E04F46"/>
<circle cx="162.998" cy="185.001" r="37.4584" fill="#DB3F2D"/>
<circle cx="162.998" cy="259.916" r="37.4584" fill="#ED554B"/>
</g>
</g>
<g style="mix-blend-mode:soft-light" opacity="0.2">
<mask id="mask2_816_2418" style="mask-type:alpha" maskUnits="userSpaceOnUse" x="320" y="20" width="74" height="74">
<circle cx="356.752" cy="56.7516" r="36.7516" fill="#4138B1"/>
</mask>
<g mask="url(#mask2_816_2418)">
<circle cx="394.918" cy="94.916" r="37.4584" fill="#DB5A51"/>
<circle cx="394.918" cy="20.0007" r="37.4584" fill="#E04F46"/>
<circle cx="319.998" cy="20.0007" r="37.4584" fill="#DB3F2D"/>
<circle cx="319.998" cy="94.916" r="37.4584" fill="#ED554B"/>
</g>
</g>
</g>
<defs>
<clipPath id="clip0_816_2418">
<rect y="-58" width="375" height="616" rx="16" fill="white"/>
</clipPath>
</defs>
</svg>
