<svg width="875" height="375" viewBox="0 0 875 375" fill="none" xmlns="http://www.w3.org/2000/svg">
<g clip-path="url(#clip0_941_6958)">
<rect width="875" height="375" fill="#272121"/>
<g clip-path="url(#clip1_941_6958)">
<rect x="-32" width="960" height="400" rx="16" fill="#CE0B16"/>
<g style="mix-blend-mode:soft-light">
<path d="M47.0011 80C47.0011 0.000819811 47.0011 44.1836 47.0011 0.000822546C90.7886 0.00082446 -32.2832 0.0082052 47.0011 0.000822546C3.21358 0.000820632 47.0011 0.000806711 -32.2832 0C-32.2832 44.1828 3.21357 80 47.0011 80Z" fill="#F0675E"/>
</g>
<g style="mix-blend-mode:soft-light">
<path d="M127 0.715691C47.0008 0.715691 91.1836 0.715691 47.0008 0.715691C47.0008 -43.0718 47.0082 80 47.0008 0.715691C47.0008 44.5032 47.0008 0.715691 47 80C91.1828 80 127 44.5032 127 0.715691Z" fill="#D81D1D"/>
</g>
<g style="mix-blend-mode:soft-light" opacity="0.8">
<path d="M48 159.284C127.999 159.284 83.8164 159.284 127.999 159.284C127.999 203.072 127.992 80 127.999 159.284C127.999 115.497 127.999 159.284 128 80C83.8172 80 48 115.497 48 159.284Z" fill="#F0675E"/>
</g>
<g style="mix-blend-mode:soft-light">
<path d="M130.607 160C130.607 239.999 130.607 195.816 130.607 239.999C87.311 239.999 209 239.992 130.607 239.999C173.902 239.999 130.607 239.999 209 240C209 195.817 173.902 160 130.607 160Z" fill="#D81D1D"/>
</g>
<g style="mix-blend-mode:soft-light" opacity="0.5">
<path d="M293 80.6065C213.001 80.6065 257.184 80.6065 213.001 80.6065C213.001 37.311 213.008 159 213.001 80.6065C213.001 123.902 213.001 80.6065 213 159C257.183 159 293 123.902 293 80.6065Z" fill="#D81D1D"/>
</g>
<g style="mix-blend-mode:soft-light" opacity="0.2">
<path d="M51 81.6065C-28.9992 81.6065 15.1836 81.6065 -28.9992 81.6065C-28.9992 38.311 -28.9918 160 -28.9992 81.6065C-28.9992 124.902 -28.9992 81.6065 -29 160C15.1828 160 51 124.902 51 81.6065Z" fill="#D81D1D"/>
</g>
<g style="mix-blend-mode:soft-light" opacity="0.2">
<path d="M131 161.607C51.0008 161.607 95.1836 161.607 51.0008 161.607C51.0008 118.311 51.0082 240 51.0008 161.607C51.0008 204.902 51.0008 161.607 51 240C95.1828 240 131 204.902 131 161.607Z" fill="#D81D1D"/>
</g>
<g style="mix-blend-mode:soft-light">
<path d="M-31.2843 160C-31.2843 239.999 -31.2843 195.816 -31.2843 239.999C-75.0718 239.999 48 239.992 -31.2843 239.999C12.5032 239.999 -31.2843 239.999 48 240C48 195.817 12.5032 160 -31.2843 160Z" fill="#F0675E"/>
</g>
<g style="mix-blend-mode:soft-light" opacity="0.2">
<path d="M213.716 1.1095e-05C213.716 79.9992 213.716 35.8164 213.716 79.9992C169.928 79.9992 293 79.9918 213.716 79.9992C257.503 79.9992 213.716 79.9992 293 80C293 35.8172 257.503 9.18101e-06 213.716 1.1095e-05Z" fill="#F0675E"/>
</g>
<g style="mix-blend-mode:soft-light" opacity="0.2">
<path d="M207.716 240C207.716 319.999 207.716 275.816 207.716 319.999C163.928 319.999 287 319.992 207.716 319.999C251.503 319.999 207.716 319.999 287 320C287 275.817 251.503 240 207.716 240Z" fill="#F0675E"/>
</g>
<g style="mix-blend-mode:soft-light" opacity="0.2">
<path d="M127.564 400C127.564 320.001 127.564 364.184 127.564 320.001C171.351 320.001 48.2793 320.008 127.564 320.001C83.7761 320.001 127.564 320.001 48.2793 320C48.2793 364.183 83.7761 400 127.564 400Z" fill="#F0675E"/>
</g>
<g style="mix-blend-mode:soft-light" opacity="0.2">
<path d="M293.999 80C293.999 0.000819811 293.999 44.1836 293.999 0.000822546C337.787 0.00082446 214.715 0.0082052 293.999 0.000822546C250.212 0.000820632 293.999 0.000806711 214.715 0C214.715 44.1828 250.212 80 293.999 80Z" fill="#F0675E"/>
</g>
<g style="mix-blend-mode:soft-light" opacity="0.2">
<path d="M287.999 320C287.999 240.001 287.999 284.184 287.999 240.001C331.787 240.001 208.715 240.008 287.999 240.001C244.212 240.001 287.999 240.001 208.715 240C208.715 284.183 244.212 320 287.999 320Z" fill="#F0675E"/>
</g>
<g style="mix-blend-mode:soft-light" opacity="0.5">
<path d="M47.2843 400C47.2843 320.001 47.2843 364.184 47.2843 320.001C91.0718 320.001 -32 320.008 47.2843 320.001C3.49678 320.001 47.2843 320.001 -32 320C-32 364.183 3.49678 400 47.2843 400Z" fill="#F0675E"/>
</g>
<g style="mix-blend-mode:soft-light">
<rect x="-32" y="240" width="80" height="80" fill="#F0675E"/>
</g>
<g style="mix-blend-mode:color-burn">
<mask id="mask0_941_6958" style="mask-type:alpha" maskUnits="userSpaceOnUse" x="-29" y="243" width="74" height="74">
<circle cx="7.75159" cy="279.752" r="36.7516" fill="#4138B1"/>
</mask>
<g mask="url(#mask0_941_6958)">
<circle cx="45.9193" cy="317.916" r="37.4584" fill="#DB5A51"/>
<circle cx="45.9193" cy="243.001" r="37.4584" fill="#E04F46"/>
<circle cx="-29.0026" cy="243.001" r="37.4584" fill="#D81D1D"/>
<circle cx="-29.0026" cy="317.916" r="37.4584" fill="#ED554B"/>
</g>
</g>
<g style="mix-blend-mode:soft-light" opacity="0.2">
<mask id="mask1_941_6958" style="mask-type:alpha" maskUnits="userSpaceOnUse" x="131" y="243" width="74" height="74">
<circle cx="167.752" cy="279.752" r="36.7516" fill="#4138B1"/>
</mask>
<g mask="url(#mask1_941_6958)">
<circle cx="205.919" cy="317.916" r="37.4584" fill="#DB5A51"/>
<circle cx="205.919" cy="243.001" r="37.4584" fill="#E04F46"/>
<circle cx="130.997" cy="243.001" r="37.4584" fill="#D81D1D"/>
<circle cx="130.997" cy="317.916" r="37.4584" fill="#ED554B"/>
</g>
</g>
<g style="mix-blend-mode:soft-light" opacity="0.2">
<mask id="mask2_941_6958" style="mask-type:alpha" maskUnits="userSpaceOnUse" x="288" y="78" width="74" height="74">
<circle cx="324.752" cy="114.752" r="36.7516" fill="#4138B1"/>
</mask>
<g mask="url(#mask2_941_6958)">
<circle cx="362.919" cy="152.916" r="37.4584" fill="#DB5A51"/>
<circle cx="362.919" cy="78.0007" r="37.4584" fill="#E04F46"/>
<circle cx="287.997" cy="78.0007" r="37.4584" fill="#D81D1D"/>
<circle cx="287.997" cy="152.916" r="37.4584" fill="#ED554B"/>
</g>
</g>
</g>
</g>
<defs>
<clipPath id="clip0_941_6958">
<rect width="875" height="375" fill="white"/>
</clipPath>
<clipPath id="clip1_941_6958">
<rect x="-32" width="960" height="400" rx="16" fill="white"/>
</clipPath>
</defs>
</svg>
