<svg width="15" height="10" viewBox="0 0 15 10" fill="none" xmlns="http://www.w3.org/2000/svg">
<path d="M0.703125 0.292114V2.46008C0.703125 3.77519 1.02214 5.10331 1.66016 6.44446C2.29818 7.7856 3.1901 8.89889 4.33594 9.7843L6.71875 8.24133C6.11979 7.408 5.65755 6.52258 5.33203 5.58508C5.01953 4.64758 4.86328 3.62545 4.86328 2.51868V0.292114H0.703125ZM8.98438 0.292114V2.46008C8.98438 3.77519 9.29688 5.10331 9.92188 6.44446C10.5599 7.7856 11.4583 8.89889 12.6172 9.7843L15 8.24133C14.401 7.408 13.9388 6.52258 13.6133 5.58508C13.2878 4.64758 13.125 3.62545 13.125 2.51868V0.292114H8.98438Z" fill="#1A1A1A"/>
</svg>
