<svg width="15" height="10" viewBox="0 0 15 10" fill="none" xmlns="http://www.w3.org/2000/svg">
<path d="M0.703125 0V2.16797C0.703125 3.48307 1.02214 4.8112 1.66016 6.15234C2.29818 7.49349 3.1901 8.60677 4.33594 9.49219L6.71875 7.94922C6.11979 7.11589 5.65755 6.23047 5.33203 5.29297C5.01953 4.35547 4.86328 3.33333 4.86328 2.22656V0H0.703125ZM8.98438 0V2.16797C8.98438 3.48307 9.29688 4.8112 9.92188 6.15234C10.5599 7.49349 11.4583 8.60677 12.6172 9.49219L15 7.94922C14.401 7.11589 13.9388 6.23047 13.6133 5.29297C13.2878 4.35547 13.125 3.33333 13.125 2.22656V0H8.98438Z" fill="#1A1A1A"/>
</svg>
