<svg width="15" height="10" viewBox="0 0 15 10" fill="none" xmlns="http://www.w3.org/2000/svg">
<path d="M0 9.49219V7.32422C0 6.00911 0.31901 4.68099 0.957031 3.33984C1.59505 1.9987 2.48698 0.885417 3.63281 0L6.01562 1.54297C5.41667 2.3763 4.95443 3.26172 4.62891 4.19922C4.31641 5.13672 4.16016 6.15885 4.16016 7.26562V9.49219H0ZM8.28125 9.49219V7.32422C8.28125 6.00911 8.59375 4.68099 9.21875 3.33984C9.85677 1.9987 10.7552 0.885417 11.9141 0L14.2969 1.54297C13.6979 2.3763 13.2357 3.26172 12.9102 4.19922C12.5846 5.13672 12.4219 6.15885 12.4219 7.26562V9.49219H8.28125Z" fill="#1A1A1A"/>
</svg>
