<svg width="15" height="10" viewBox="0 0 15 10" fill="none" xmlns="http://www.w3.org/2000/svg">
<path d="M0 9.7843V7.61633C0 6.30123 0.31901 4.9731 0.957031 3.63196C1.59505 2.29081 2.48698 1.17753 3.63281 0.292114L6.01562 1.83508C5.41667 2.66842 4.95443 3.55383 4.62891 4.49133C4.31641 5.42883 4.16016 6.45097 4.16016 7.55774V9.7843H0ZM8.28125 9.7843V7.61633C8.28125 6.30123 8.59375 4.9731 9.21875 3.63196C9.85677 2.29081 10.7552 1.17753 11.9141 0.292114L14.2969 1.83508C13.6979 2.66842 13.2357 3.55383 12.9102 4.49133C12.5846 5.42883 12.4219 6.45097 12.4219 7.55774V9.7843H8.28125Z" fill="#1A1A1A"/>
</svg>
