<svg width="1441" height="400" viewBox="0 0 1441 400" fill="none" xmlns="http://www.w3.org/2000/svg">
<g clip-path="url(#clip0_809_10568)">
<rect width="1441" height="400" rx="16" fill="#CE0B16"/>
<g style="mix-blend-mode:soft-light">
<path d="M79.0031 80C79.0031 0.000819811 79.0031 44.1836 79.0031 0.000822546C122.791 0.00082446 -0.281281 0.0082052 79.0031 0.000822546C35.2155 0.000820632 79.0031 0.000806711 -0.28125 0C-0.281252 44.1828 35.2155 80 79.0031 80Z" fill="#F0675E"/>
</g>
<g style="mix-blend-mode:soft-light">
<path d="M1363.5 80C1363.5 0.000819811 1363.5 44.1836 1363.5 0.000822546C1319.71 0.00082446 1442.79 0.0082052 1363.5 0.000822546C1407.29 0.000820632 1363.5 0.000806711 1442.79 0C1442.79 44.1828 1407.29 80 1363.5 80Z" fill="#F0675E"/>
</g>
<g style="mix-blend-mode:soft-light">
<path d="M159 0.715691C79.0008 0.715691 123.184 0.715691 79.0008 0.715691C79.0008 -43.0718 79.0082 80 79.0008 0.715691C79.0008 44.5032 79.0008 0.715691 79 80C123.183 80 159 44.5032 159 0.715691Z" fill="#D81D1D"/>
</g>
<g style="mix-blend-mode:soft-light">
<path d="M1283.5 0.715691C1363.5 0.715691 1319.32 0.715691 1363.5 0.715691C1363.5 -43.0718 1363.5 80 1363.5 0.715691C1363.5 44.5032 1363.5 0.715691 1363.5 80C1319.32 80 1283.5 44.5032 1283.5 0.715691Z" fill="#D81D1D"/>
</g>
<g style="mix-blend-mode:soft-light" opacity="0.8">
<path d="M80 159.284C159.999 159.284 115.816 159.284 159.999 159.284C159.999 203.072 159.992 80 159.999 159.284C159.999 115.497 159.999 159.284 160 80C115.817 80 80 115.497 80 159.284Z" fill="#F0675E"/>
</g>
<g style="mix-blend-mode:soft-light" opacity="0.8">
<path d="M1362.5 159.284C1282.5 159.284 1326.69 159.284 1282.5 159.284C1282.5 203.072 1282.51 80 1282.5 159.284C1282.5 115.497 1282.5 159.284 1282.5 80C1326.69 80 1362.5 115.497 1362.5 159.284Z" fill="#F0675E"/>
</g>
<g style="mix-blend-mode:soft-light">
<path d="M162.607 160C162.607 239.999 162.607 195.816 162.607 239.999C119.311 239.999 241 239.992 162.607 239.999C205.902 239.999 162.607 239.999 241 240C241 195.817 205.902 160 162.607 160Z" fill="#D81D1D"/>
</g>
<g style="mix-blend-mode:soft-light">
<path d="M1279.9 160C1279.9 239.999 1279.9 195.816 1279.9 239.999C1323.19 239.999 1201.5 239.992 1279.9 239.999C1236.6 239.999 1279.9 239.999 1201.5 240C1201.5 195.817 1236.6 160 1279.9 160Z" fill="#D81D1D"/>
</g>
<g style="mix-blend-mode:soft-light" opacity="0.5">
<path d="M325 80.6065C245.001 80.6065 289.184 80.6065 245.001 80.6065C245.001 37.311 245.008 159 245.001 80.6065C245.001 123.902 245.001 80.6065 245 159C289.183 159 325 123.902 325 80.6065Z" fill="#D81D1D"/>
</g>
<g style="mix-blend-mode:soft-light" opacity="0.5">
<path d="M1117.5 80.6065C1197.5 80.6065 1153.32 80.6065 1197.5 80.6065C1197.5 37.311 1197.5 159 1197.5 80.6065C1197.5 123.902 1197.5 80.6065 1197.5 159C1153.32 159 1117.5 123.902 1117.5 80.6065Z" fill="#D81D1D"/>
</g>
<g style="mix-blend-mode:soft-light" opacity="0.2">
<path d="M83 81.6065C3.00082 81.6065 47.1836 81.6065 3.00082 81.6065C3.00082 38.311 3.00821 160 3.00082 81.6065C3.00082 124.902 3.0008 81.6065 3 160C47.1828 160 83 124.902 83 81.6065Z" fill="#D81D1D"/>
</g>
<g style="mix-blend-mode:soft-light" opacity="0.2">
<path d="M1359.5 81.6065C1439.5 81.6065 1395.32 81.6065 1439.5 81.6065C1439.5 38.311 1439.5 160 1439.5 81.6065C1439.5 124.902 1439.5 81.6065 1439.5 160C1395.32 160 1359.5 124.902 1359.5 81.6065Z" fill="#D81D1D"/>
</g>
<g style="mix-blend-mode:soft-light" opacity="0.2">
<path d="M163 161.607C83.0008 161.607 127.184 161.607 83.0008 161.607C83.0008 118.311 83.0082 240 83.0008 161.607C83.0008 204.902 83.0008 161.607 83 240C127.183 240 163 204.902 163 161.607Z" fill="#D81D1D"/>
</g>
<g style="mix-blend-mode:soft-light" opacity="0.2">
<path d="M1279.5 161.607C1359.5 161.607 1315.32 161.607 1359.5 161.607C1359.5 118.311 1359.5 240 1359.5 161.607C1359.5 204.902 1359.5 161.607 1359.5 240C1315.32 240 1279.5 204.902 1279.5 161.607Z" fill="#D81D1D"/>
</g>
<g style="mix-blend-mode:soft-light">
<path d="M0.715687 160C0.715691 239.999 0.715689 195.816 0.715691 239.999C-43.0718 239.999 80 239.992 0.715691 239.999C44.5032 239.999 0.715691 239.999 80 240C80 195.817 44.5032 160 0.715687 160Z" fill="#F0675E"/>
</g>
<g style="mix-blend-mode:soft-light">
<path d="M1441.79 160C1441.79 239.999 1441.79 195.816 1441.79 239.999C1485.58 239.999 1362.5 239.992 1441.79 239.999C1398 239.999 1441.79 239.999 1362.5 240C1362.5 195.817 1398 160 1441.79 160Z" fill="#F0675E"/>
</g>
<g style="mix-blend-mode:soft-light">
<path d="M1363.23 320C1363.23 399.999 1363.23 355.816 1363.23 399.999C1407.01 399.999 1283.94 399.992 1363.23 399.999C1319.44 399.999 1363.23 399.999 1283.94 400C1283.94 355.817 1319.44 320 1363.23 320Z" fill="#F0675E"/>
</g>
<g style="mix-blend-mode:soft-light" opacity="0.2">
<path d="M245.716 1.1095e-05C245.716 79.9992 245.716 35.8164 245.716 79.9992C201.928 79.9992 325 79.9918 245.716 79.9992C289.503 79.9992 245.716 79.9992 325 80C325 35.8172 289.503 9.18101e-06 245.716 1.1095e-05Z" fill="#F0675E"/>
</g>
<g style="mix-blend-mode:soft-light" opacity="0.2">
<path d="M1196.79 1.1095e-05C1196.79 79.9992 1196.79 35.8164 1196.79 79.9992C1240.58 79.9992 1117.5 79.9918 1196.79 79.9992C1153 79.9992 1196.79 79.9992 1117.5 80C1117.5 35.8172 1153 9.18101e-06 1196.79 1.1095e-05Z" fill="#F0675E"/>
</g>
<g style="mix-blend-mode:soft-light" opacity="0.2">
<path d="M239.716 240C239.716 319.999 239.716 275.816 239.716 319.999C195.928 319.999 319 319.992 239.716 319.999C283.503 319.999 239.716 319.999 319 320C319 275.817 283.503 240 239.716 240Z" fill="#F0675E"/>
</g>
<g style="mix-blend-mode:soft-light" opacity="0.2">
<path d="M1202.79 240C1202.79 319.999 1202.79 275.816 1202.79 319.999C1246.58 319.999 1123.5 319.992 1202.79 319.999C1159 319.999 1202.79 319.999 1123.5 320C1123.5 275.817 1159 240 1202.79 240Z" fill="#F0675E"/>
</g>
<g style="mix-blend-mode:soft-light" opacity="0.2">
<path d="M159.566 400C159.566 320.001 159.566 364.184 159.566 320.001C203.353 320.001 80.2812 320.008 159.566 320.001C115.778 320.001 159.566 320.001 80.2812 320C80.2812 364.183 115.778 400 159.566 400Z" fill="#F0675E"/>
</g>
<g style="mix-blend-mode:soft-light" opacity="0.2">
<path d="M1282.93 400C1282.93 320.001 1282.93 364.184 1282.93 320.001C1239.15 320.001 1362.22 320.008 1282.93 320.001C1326.72 320.001 1282.93 320.001 1362.22 320C1362.22 364.183 1326.72 400 1282.93 400Z" fill="#F0675E"/>
</g>
<g style="mix-blend-mode:soft-light" opacity="0.2">
<path d="M325.999 80C325.999 0.000819811 325.999 44.1836 325.999 0.000822546C369.787 0.00082446 246.715 0.0082052 325.999 0.000822546C282.212 0.000820632 325.999 0.000806711 246.715 0C246.715 44.1828 282.212 80 325.999 80Z" fill="#F0675E"/>
</g>
<g style="mix-blend-mode:soft-light" opacity="0.2">
<path d="M1116.5 80C1116.5 0.000819811 1116.5 44.1836 1116.5 0.000822546C1072.72 0.00082446 1195.79 0.0082052 1116.5 0.000822546C1160.29 0.000820632 1116.5 0.000806711 1195.79 0C1195.79 44.1828 1160.29 80 1116.5 80Z" fill="#F0675E"/>
</g>
<g style="mix-blend-mode:soft-light" opacity="0.2">
<path d="M319.999 320C319.999 240.001 319.999 284.184 319.999 240.001C363.787 240.001 240.715 240.008 319.999 240.001C276.212 240.001 319.999 240.001 240.715 240C240.715 284.183 276.212 320 319.999 320Z" fill="#F0675E"/>
</g>
<g style="mix-blend-mode:soft-light" opacity="0.2">
<path d="M1122.5 320C1122.5 240.001 1122.5 284.184 1122.5 240.001C1078.72 240.001 1201.79 240.008 1122.5 240.001C1166.29 240.001 1122.5 240.001 1201.79 240C1201.79 284.183 1166.29 320 1122.5 320Z" fill="#F0675E"/>
</g>
<g style="mix-blend-mode:soft-light" opacity="0.5">
<path d="M79.2843 400C79.2843 320.001 79.2843 364.184 79.2843 320.001C123.072 320.001 -3.05179e-05 320.008 79.2843 320.001C35.4968 320.001 79.2843 320.001 0 320C-1.93129e-06 364.183 35.4968 400 79.2843 400Z" fill="#F0675E"/>
</g>
<g style="mix-blend-mode:soft-light" opacity="0.5">
<path d="M1363.22 400C1363.22 320.001 1363.22 364.184 1363.22 320.001C1319.43 320.001 1442.5 320.008 1363.22 320.001C1407.01 320.001 1363.22 320.001 1442.5 320C1442.5 364.183 1407.01 400 1363.22 400Z" fill="#F0675E"/>
</g>
<g style="mix-blend-mode:soft-light">
<rect y="240" width="80" height="80" fill="#F0675E"/>
</g>
<g style="mix-blend-mode:soft-light">
<rect width="80" height="80" transform="matrix(-1 0 0 1 1442.5 240)" fill="#F0675E"/>
</g>
<g style="mix-blend-mode:color-burn">
<mask id="mask0_809_10568" style="mask-type:alpha" maskUnits="userSpaceOnUse" x="3" y="243" width="74" height="74">
<circle cx="39.7516" cy="279.752" r="36.7516" fill="#4138B1"/>
</mask>
<g mask="url(#mask0_809_10568)">
<circle cx="77.9193" cy="317.916" r="37.4584" fill="#DB5A51"/>
<circle cx="77.9193" cy="243.001" r="37.4584" fill="#E04F46"/>
<circle cx="2.99742" cy="243.001" r="37.4584" fill="#DB3F2D"/>
<circle cx="2.99742" cy="317.916" r="37.4584" fill="#ED554B"/>
</g>
</g>
<g style="mix-blend-mode:color-burn">
<mask id="mask1_809_10568" style="mask-type:alpha" maskUnits="userSpaceOnUse" x="1366" y="243" width="74" height="74">
<circle cx="36.7516" cy="36.7516" r="36.7516" transform="matrix(-1 0 0 1 1439.5 243)" fill="#4138B1"/>
</mask>
<g mask="url(#mask1_809_10568)">
<circle cx="37.4584" cy="37.4584" r="37.4584" transform="matrix(-1 0 0 1 1402.04 280.458)" fill="#DB5A51"/>
<circle cx="37.4584" cy="37.4584" r="37.4584" transform="matrix(-1 0 0 1 1402.04 205.542)" fill="#E04F46"/>
<circle cx="37.4584" cy="37.4584" r="37.4584" transform="matrix(-1 0 0 1 1476.96 205.542)" fill="#DB3F2D"/>
<circle cx="37.4584" cy="37.4584" r="37.4584" transform="matrix(-1 0 0 1 1476.96 280.458)" fill="#ED554B"/>
</g>
</g>
<g style="mix-blend-mode:soft-light" opacity="0.2">
<mask id="mask2_809_10568" style="mask-type:alpha" maskUnits="userSpaceOnUse" x="163" y="243" width="74" height="74">
<circle cx="199.752" cy="279.752" r="36.7516" fill="#4138B1"/>
</mask>
<g mask="url(#mask2_809_10568)">
<circle cx="237.919" cy="317.916" r="37.4584" fill="#DB5A51"/>
<circle cx="237.919" cy="243.001" r="37.4584" fill="#E04F46"/>
<circle cx="162.997" cy="243.001" r="37.4584" fill="#DB3F2D"/>
<circle cx="162.997" cy="317.916" r="37.4584" fill="#ED554B"/>
</g>
</g>
<g style="mix-blend-mode:soft-light" opacity="0.2">
<mask id="mask3_809_10568" style="mask-type:alpha" maskUnits="userSpaceOnUse" x="1206" y="243" width="74" height="74">
<circle cx="36.7516" cy="36.7516" r="36.7516" transform="matrix(-1 0 0 1 1279.5 243)" fill="#4138B1"/>
</mask>
<g mask="url(#mask3_809_10568)">
<circle cx="37.4584" cy="37.4584" r="37.4584" transform="matrix(-1 0 0 1 1242.04 280.458)" fill="#DB5A51"/>
<circle cx="37.4584" cy="37.4584" r="37.4584" transform="matrix(-1 0 0 1 1242.04 205.542)" fill="#E04F46"/>
<circle cx="37.4584" cy="37.4584" r="37.4584" transform="matrix(-1 0 0 1 1316.96 205.542)" fill="#DB3F2D"/>
<circle cx="37.4584" cy="37.4584" r="37.4584" transform="matrix(-1 0 0 1 1316.96 280.458)" fill="#ED554B"/>
</g>
</g>
<g style="mix-blend-mode:soft-light" opacity="0.2">
<mask id="mask4_809_10568" style="mask-type:alpha" maskUnits="userSpaceOnUse" x="320" y="78" width="74" height="74">
<circle cx="356.752" cy="114.752" r="36.7516" fill="#4138B1"/>
</mask>
<g mask="url(#mask4_809_10568)">
<circle cx="394.919" cy="152.916" r="37.4584" fill="#DB5A51"/>
<circle cx="394.919" cy="78.0008" r="37.4584" fill="#E04F46"/>
<circle cx="319.997" cy="78.0008" r="37.4584" fill="#DB3F2D"/>
<circle cx="319.997" cy="152.916" r="37.4584" fill="#ED554B"/>
</g>
</g>
<g style="mix-blend-mode:soft-light" opacity="0.2">
<mask id="mask5_809_10568" style="mask-type:alpha" maskUnits="userSpaceOnUse" x="1049" y="78" width="74" height="74">
<circle cx="36.7516" cy="36.7516" r="36.7516" transform="matrix(-1 0 0 1 1122.5 78)" fill="#4138B1"/>
</mask>
<g mask="url(#mask5_809_10568)">
<circle cx="37.4584" cy="37.4584" r="37.4584" transform="matrix(-1 0 0 1 1085.04 115.458)" fill="#DB5A51"/>
<circle cx="37.4584" cy="37.4584" r="37.4584" transform="matrix(-1 0 0 1 1085.04 40.5425)" fill="#E04F46"/>
<circle cx="37.4584" cy="37.4584" r="37.4584" transform="matrix(-1 0 0 1 1159.96 40.5425)" fill="#DB3F2D"/>
<circle cx="37.4584" cy="37.4584" r="37.4584" transform="matrix(-1 0 0 1 1159.96 115.458)" fill="#ED554B"/>
</g>
</g>
</g>
<defs>
<clipPath id="clip0_809_10568">
<rect width="1441" height="400" rx="16" fill="white"/>
</clipPath>
</defs>
</svg>
