<svg width="302" height="285" viewBox="0 0 302 285" fill="none" xmlns="http://www.w3.org/2000/svg">
<g clip-path="url(#clip0_1699_9908)">
<mask id="mask0_1699_9908" style="mask-type:luminance" maskUnits="userSpaceOnUse" x="0" y="0" width="302" height="285">
<path d="M301.398 0H0.398438V285H301.398V0Z" fill="white"/>
</mask>
<g mask="url(#mask0_1699_9908)">
<path d="M301.398 0H0.398438V285H301.398V0Z" fill="#BD3939"/>
<path d="M160.226 142.984L141.121 154.092V131.877L160.226 142.984Z" fill="#BD3939"/>
<g style="mix-blend-mode:screen">
<path d="M18.0925 5.91838C-27.9136 5.91838 -2.50484 5.91838 -27.9136 5.91838C-27.9093 51.5133 -27.9136 -19.2631 -27.9136 5.91838C-27.9136 31.0998 -27.9136 5.91838 -27.9141 51.5133C-2.50531 51.5133 18.0925 31.0998 18.0925 5.91838Z" fill="#F0675E"/>
</g>
<g style="mix-blend-mode:screen" opacity="0.8">
<path d="M-27.3438 97.1082C18.6623 97.1082 -6.74638 97.1082 18.6624 97.1082C18.6624 122.29 18.6581 51.5132 18.6624 97.1082C18.6624 71.9268 18.6623 97.1082 18.6628 51.5132C-6.7459 51.5132 -27.3438 71.9268 -27.3438 97.1082Z" fill="#F0675E"/>
</g>
<g style="mix-blend-mode:screen">
<path d="M20.1769 97.52C20.1769 143.526 20.1769 118.117 20.1769 143.526C65.2596 143.522 -4.72158 143.526 20.1769 143.526C45.0754 143.526 20.1769 143.526 65.2596 143.527C65.2596 118.118 45.0754 97.52 20.1769 97.52Z" fill="#F0675E"/>
</g>
<g style="mix-blend-mode:screen" opacity="0.2">
<path d="M20.3894 98.444C-25.6167 98.444 -0.207981 98.444 -25.6167 98.444C-25.6125 143.527 -25.6167 73.5455 -25.6167 98.444C-25.6167 123.342 -25.6167 98.4439 -25.6172 143.527C-0.208454 143.527 20.3894 123.342 20.3894 98.444Z" fill="#F0675E"/>
</g>
<g style="mix-blend-mode:screen" opacity="0.2">
<path d="M67.9506 5.50684C67.9506 51.513 67.9506 26.1042 67.9506 51.513C113.546 51.5087 42.7692 51.513 67.9506 51.513C93.132 51.513 67.9506 51.513 113.546 51.5134C113.546 26.1047 93.132 5.50684 67.9506 5.50684Z" fill="#F0675E"/>
</g>
<g style="mix-blend-mode:screen" opacity="0.2">
<path d="M64.5053 143.526C64.5053 189.532 64.5053 164.124 64.5053 189.532C110.101 189.528 39.3238 189.532 64.5053 189.532C89.6867 189.532 64.5053 189.532 110.101 189.533C110.101 164.124 89.6867 143.526 64.5053 143.526Z" fill="#F0675E"/>
</g>
<g style="mix-blend-mode:screen" opacity="0.2">
<path d="M18.4153 235.54C18.4153 189.533 18.4153 214.942 18.4153 189.533C43.5967 189.533 -27.1797 189.538 18.4153 189.533C-6.76611 189.533 18.4153 189.533 -27.1797 189.533C-27.1797 214.942 -6.76611 235.54 18.4153 235.54Z" fill="#F0675E"/>
</g>
<g style="mix-blend-mode:screen" opacity="0.2">
<path d="M114.134 51.5134C114.134 5.50731 114.134 30.916 114.134 5.50731C139.315 5.50731 68.5391 5.51155 114.134 5.50731C88.9526 5.50731 114.134 5.5073 68.5391 5.50684C68.5391 30.9156 88.9526 51.5134 114.134 51.5134Z" fill="#F0675E"/>
</g>
<g style="mix-blend-mode:screen" opacity="0.2">
<path d="M110.665 189.533C110.665 143.527 110.665 168.936 110.665 143.527C135.847 143.527 65.0703 143.531 110.665 143.527C85.4839 143.527 110.665 143.527 65.0703 143.527C65.0703 168.935 85.4839 189.533 110.665 189.533Z" fill="#F0675E"/>
</g>
<g style="mix-blend-mode:screen" opacity="0.2">
<path d="M64.2591 281.546C64.2591 235.54 64.2591 260.949 64.2591 235.54C89.4405 235.54 18.664 235.544 64.2591 235.54C39.0776 235.54 64.2591 235.54 18.6641 235.54C18.6641 260.948 39.0776 281.546 64.2591 281.546Z" fill="#F0675E"/>
</g>
<g style="mix-blend-mode:screen" opacity="0.2">
<mask id="mask1_1699_9908" style="mask-type:alpha" maskUnits="userSpaceOnUse" x="20" y="145" width="43" height="43">
<g style="mix-blend-mode:screen" opacity="0.2">
<path d="M41.518 187.522C53.1907 187.522 62.6532 178.06 62.6532 166.387C62.6532 154.714 53.1907 145.252 41.518 145.252C29.8454 145.252 20.3828 154.714 20.3828 166.387C20.3828 178.06 29.8454 187.522 41.518 187.522Z" fill="#4138B1"/>
</g>
</mask>
<g mask="url(#mask1_1699_9908)">
<path d="M63.4635 209.876C75.3606 209.876 85.0051 200.231 85.0051 188.334C85.0051 176.437 75.3606 166.792 63.4635 166.792C51.5664 166.792 41.9219 176.437 41.9219 188.334C41.9219 200.231 51.5664 209.876 63.4635 209.876Z" fill="#F0675E"/>
<path d="M63.4635 166.794C75.3606 166.794 85.0051 157.149 85.0051 145.252C85.0051 133.355 75.3606 123.71 63.4635 123.71C51.5664 123.71 41.9219 133.355 41.9219 145.252C41.9219 157.149 51.5664 166.794 63.4635 166.794Z" fill="#F0675E"/>
<path d="M20.3854 166.794C32.2824 166.794 41.9269 157.149 41.9269 145.252C41.9269 133.355 32.2824 123.71 20.3854 123.71C8.48825 123.71 -1.15625 133.355 -1.15625 145.252C-1.15625 157.149 8.48825 166.794 20.3854 166.794Z" fill="#F0675E"/>
<path d="M20.3854 209.876C32.2824 209.876 41.9269 200.231 41.9269 188.334C41.9269 176.437 32.2824 166.792 20.3854 166.792C8.48825 166.792 -1.15625 176.437 -1.15625 188.334C-1.15625 200.231 8.48825 209.876 20.3854 209.876Z" fill="#F0675E"/>
</g>
</g>
<g style="mix-blend-mode:screen">
<path d="M301.877 98.9521C301.877 145.793 301.877 119.923 301.877 145.793C327.228 145.793 255.977 145.789 301.877 145.793C276.527 145.793 301.877 145.793 255.977 145.794C255.977 119.924 276.527 98.9521 301.877 98.9521Z" fill="#F0675E"/>
</g>
<g style="mix-blend-mode:screen" opacity="0.2">
<path d="M253.219 5.26953C253.219 52.1105 253.219 26.2407 253.219 52.1105C278.858 52.1105 206.797 52.1062 253.219 52.1105C227.581 52.1105 253.219 52.1105 206.797 52.111C206.797 26.2412 227.581 5.26953 253.219 5.26953Z" fill="#F0675E"/>
</g>
<g style="mix-blend-mode:screen" opacity="0.2">
<path d="M256.735 145.794C256.735 192.635 256.735 166.765 256.735 192.635C282.373 192.635 210.312 192.63 256.735 192.635C231.097 192.635 256.736 192.635 210.312 192.635C210.314 166.765 231.097 145.794 256.735 145.794Z" fill="#F0675E"/>
</g>
<g style="mix-blend-mode:screen" opacity="0.2">
<path d="M303.658 239.477C303.658 192.636 303.658 218.506 303.658 192.636C350.08 192.64 278.019 192.636 303.658 192.636C329.296 192.636 303.658 192.636 350.08 192.635C350.08 218.505 329.296 239.477 303.658 239.477Z" fill="#F0675E"/>
</g>
<g style="mix-blend-mode:screen" opacity="0.2">
<path d="M206.197 52.111C206.197 5.27001 206.197 31.1398 206.197 5.27001C252.619 5.27434 180.558 5.27001 206.197 5.27001C231.835 5.27001 206.197 5.27 252.619 5.26953C252.619 31.1393 231.835 52.111 206.197 52.111Z" fill="#F0675E"/>
</g>
<g style="mix-blend-mode:screen" opacity="0.2">
<path d="M209.728 192.635C209.728 145.794 209.728 171.664 209.728 145.794C256.15 145.799 184.09 145.794 209.728 145.794C235.366 145.794 209.728 145.794 256.15 145.794C256.15 171.664 235.366 192.635 209.728 192.635Z" fill="#F0675E"/>
</g>
<g style="mix-blend-mode:screen" opacity="0.2">
<path d="M256.97 286.318C256.97 239.477 256.97 265.347 256.97 239.477C303.393 239.481 231.332 239.477 256.97 239.477C282.609 239.477 256.97 239.477 303.393 239.477C303.393 265.346 282.609 286.318 256.97 286.318Z" fill="#F0675E"/>
</g>
<g style="mix-blend-mode:screen" opacity="0.2">
<mask id="mask2_1699_9908" style="mask-type:alpha" maskUnits="userSpaceOnUse" x="258" y="147" width="44" height="44">
<g style="mix-blend-mode:screen" opacity="0.2">
<path d="M280.126 190.588C268.241 190.588 258.607 180.954 258.607 169.069C258.607 157.185 268.241 147.551 280.126 147.551C292.01 147.551 301.645 157.185 301.645 169.069C301.645 180.954 292.01 190.588 280.126 190.588Z" fill="#4138B1"/>
</g>
</mask>
<g mask="url(#mask2_1699_9908)">
<path d="M257.771 213.348C245.658 213.348 235.838 203.528 235.838 191.415C235.838 179.302 245.658 169.483 257.771 169.483C269.884 169.483 279.703 179.302 279.703 191.415C279.703 203.528 269.884 213.348 257.771 213.348Z" fill="#F0675E"/>
<path d="M257.771 169.483C245.658 169.483 235.838 159.663 235.838 147.55C235.838 135.437 245.658 125.618 257.771 125.618C269.884 125.618 279.703 135.437 279.703 147.55C279.703 159.663 269.884 169.483 257.771 169.483Z" fill="#F0675E"/>
<path d="M301.646 169.483C289.533 169.483 279.713 159.663 279.713 147.55C279.713 135.437 289.533 125.618 301.646 125.618C313.759 125.618 323.578 135.437 323.578 147.55C323.578 159.663 313.759 169.483 301.646 169.483Z" fill="#F0675E"/>
<path d="M301.646 213.348C289.533 213.348 279.713 203.528 279.713 191.415C279.713 179.302 289.533 169.483 301.646 169.483C313.759 169.483 323.578 179.302 323.578 191.415C323.578 203.528 313.759 213.348 301.646 213.348Z" fill="#F0675E"/>
</g>
</g>
</g>
</g>
<defs>
<clipPath id="clip0_1699_9908">
<rect width="302" height="285" fill="white"/>
</clipPath>
</defs>
</svg>
