<svg width="405" height="651" viewBox="0 0 405 651" fill="none" xmlns="http://www.w3.org/2000/svg">
<g clip-path="url(#clip0_1692_10562)">
<rect width="405" height="651" rx="2" fill="#BD3939"/>
<g style="mix-blend-mode:screen">
<path d="M79.0031 79.9941C79.0031 -0.00503956 79.0031 44.1777 79.0031 -0.00503683C122.791 -0.00503492 -0.281281 0.00234582 79.0031 -0.00503683C35.2155 -0.00503874 79.0031 -0.00505266 -0.28125 -0.00585938C-0.281252 44.1769 35.2155 79.9941 79.0031 79.9941Z" fill="#F0675E"/>
</g>
<g style="mix-blend-mode:screen">
<path d="M159 0.709831C79.0008 0.709831 123.184 0.709831 79.0008 0.709831C79.0008 -43.0777 79.0082 79.9941 79.0008 0.709831C79.0008 44.4973 79.0008 0.709831 79 79.9941C123.183 79.9941 159 44.4973 159 0.709831Z" fill="#F0675E"/>
</g>
<g style="mix-blend-mode:screen" opacity="0.8">
<path d="M80 159.278C159.999 159.278 115.816 159.278 159.999 159.278C159.999 203.066 159.992 79.9941 159.999 159.278C159.999 115.491 159.999 159.278 160 79.9941C115.817 79.9941 80 115.491 80 159.278Z" fill="#F0675E"/>
</g>
<g style="mix-blend-mode:screen">
<path d="M162.607 159.994C162.607 239.993 162.607 195.811 162.607 239.993C119.311 239.993 241 239.986 162.607 239.993C205.902 239.993 162.607 239.993 241 239.994C241 195.811 205.902 159.994 162.607 159.994Z" fill="#F0675E"/>
</g>
<g style="mix-blend-mode:screen" opacity="0.2">
<path d="M83 81.6007C3.00082 81.6007 47.1836 81.6007 3.00082 81.6007C3.00082 38.3051 3.00821 159.994 3.00082 81.6007C3.00082 124.896 3.0008 81.6007 3 159.994C47.1828 159.994 83 124.896 83 81.6007Z" fill="#F0675E"/>
</g>
<g style="mix-blend-mode:screen" opacity="0.2">
<path d="M163 161.601C83.0008 161.601 127.184 161.601 83.0008 161.601C83.0008 118.305 83.0082 239.994 83.0008 161.601C83.0008 204.896 83.0008 161.601 83 239.994C127.183 239.994 163 204.896 163 161.601Z" fill="#F0675E"/>
</g>
<g style="mix-blend-mode:screen" opacity="0.2">
<path d="M-5.00001 478.388C74.9992 478.388 30.8164 478.388 74.9992 478.388C74.9992 521.683 74.9918 399.994 74.9992 478.388C74.9992 435.092 74.9992 478.388 75 399.994C30.8172 399.994 -5.00001 435.092 -5.00001 478.388Z" fill="#F0675E"/>
</g>
<g style="mix-blend-mode:screen">
<path d="M0.715687 159.994C0.715691 239.993 0.715689 195.811 0.715691 239.993C-43.0718 239.993 80 239.986 0.715691 239.993C44.5032 239.993 0.715691 239.993 80 239.994C80 195.811 44.5032 159.994 0.715687 159.994Z" fill="#F0675E"/>
</g>
<g style="mix-blend-mode:screen" opacity="0.2">
<path d="M245.716 -0.00584828C245.716 79.9933 245.716 35.8106 245.716 79.9933C201.928 79.9933 325 79.9859 245.716 79.9933C289.503 79.9933 245.716 79.9933 325 79.9941C325 35.8114 289.503 -0.00585019 245.716 -0.00584828Z" fill="#F0675E"/>
</g>
<g style="mix-blend-mode:screen" opacity="0.2">
<path d="M239.716 239.994C239.716 319.993 239.716 275.811 239.716 319.993C195.928 319.993 319 319.986 239.716 319.993C283.503 319.993 239.716 319.993 319 319.994C319 275.811 283.503 239.994 239.716 239.994Z" fill="#F0675E"/>
</g>
<g style="mix-blend-mode:screen" opacity="0.2">
<path d="M159.566 399.994C159.566 319.995 159.566 364.178 159.566 319.995C203.353 319.995 80.2812 320.002 159.566 319.995C115.778 319.995 159.566 319.995 80.2812 319.994C80.2812 364.177 115.778 399.994 159.566 399.994Z" fill="#F0675E"/>
</g>
<g style="mix-blend-mode:screen" opacity="0.2">
<path d="M326.003 79.9941C326.003 -0.00503956 326.003 44.1777 326.003 -0.00503683C369.791 -0.00503492 246.719 0.00234582 326.003 -0.00503683C282.216 -0.00503874 326.003 -0.00505266 246.719 -0.00585938C246.719 44.1769 282.216 79.9941 326.003 79.9941Z" fill="#F0675E"/>
</g>
<g style="mix-blend-mode:screen" opacity="0.2">
<path d="M320.003 319.994C320.003 239.995 320.003 284.178 320.003 239.995C363.791 239.995 240.719 240.002 320.003 239.995C276.216 239.995 320.003 239.995 240.719 239.994C240.719 284.177 276.216 319.994 320.003 319.994Z" fill="#F0675E"/>
</g>
<g style="mix-blend-mode:screen" opacity="0.5">
<path d="M79.2843 399.994C79.2843 319.995 79.2843 364.178 79.2843 319.995C123.072 319.995 -3.05179e-05 320.002 79.2843 319.995C35.4968 319.995 79.2843 319.995 0 319.994C-1.93129e-06 364.177 35.4968 399.994 79.2843 399.994Z" fill="#F0675E"/>
</g>
<g style="mix-blend-mode:screen" opacity="0.2">
<path d="M239.284 479.994C239.284 399.995 239.284 444.178 239.284 399.995C283.072 399.995 160 400.002 239.284 399.995C195.497 399.995 239.284 399.995 160 399.994C160 444.177 195.497 479.994 239.284 479.994Z" fill="#F0675E"/>
</g>
<g style="mix-blend-mode:screen">
<rect y="239.994" width="80" height="80" fill="#F0675E"/>
</g>
<g style="mix-blend-mode:screen">
<mask id="mask0_1692_10562" style="mask-type:alpha" maskUnits="userSpaceOnUse" x="3" y="242" width="74" height="75">
<circle cx="39.7516" cy="279.746" r="36.7516" fill="#4138B1"/>
</mask>
<g mask="url(#mask0_1692_10562)">
<circle cx="77.9193" cy="317.91" r="37.4584" fill="#F0675E"/>
<circle cx="77.9193" cy="242.995" r="37.4584" fill="#F0675E"/>
<circle cx="2.99742" cy="242.995" r="37.4584" fill="#F0675E"/>
<circle cx="2.99742" cy="317.91" r="37.4584" fill="#F0675E"/>
</g>
</g>
<g style="mix-blend-mode:screen" opacity="0.2">
<mask id="mask1_1692_10562" style="mask-type:alpha" maskUnits="userSpaceOnUse" x="163" y="242" width="74" height="75">
<circle cx="199.752" cy="279.746" r="36.7516" fill="#4138B1"/>
</mask>
<g mask="url(#mask1_1692_10562)">
<circle cx="237.919" cy="317.91" r="37.4584" fill="#F0675E"/>
<circle cx="237.919" cy="242.995" r="37.4584" fill="#F0675E"/>
<circle cx="162.997" cy="242.995" r="37.4584" fill="#F0675E"/>
<circle cx="162.997" cy="317.91" r="37.4584" fill="#F0675E"/>
</g>
</g>
<g style="mix-blend-mode:screen">
<path d="M329.497 569C329.497 489.001 329.497 533.184 329.497 489.001C285.709 489.001 408.781 489.008 329.497 489.001C373.284 489.001 329.497 489.001 408.781 489C408.781 533.183 373.284 569 329.497 569Z" fill="#F0675E"/>
</g>
<g style="mix-blend-mode:screen">
<path d="M249.5 489.716C329.499 489.716 285.316 489.716 329.499 489.716C329.499 445.928 329.492 569 329.499 489.716C329.499 533.503 329.499 489.716 329.5 569C285.317 569 249.5 533.503 249.5 489.716Z" fill="#F0675E"/>
</g>
<g style="mix-blend-mode:screen" opacity="0.8">
<path d="M328.5 648.284C248.501 648.284 292.684 648.284 248.501 648.284C248.501 692.072 248.508 569 248.501 648.284C248.501 604.497 248.501 648.284 248.5 569C292.683 569 328.5 604.497 328.5 648.284Z" fill="#F0675E"/>
</g>
<g style="mix-blend-mode:screen">
<path d="M245.893 649C245.893 728.999 245.893 684.816 245.893 728.999C289.189 728.999 167.5 728.992 245.893 728.999C202.598 728.999 245.893 728.999 167.5 729C167.5 684.817 202.598 649 245.893 649Z" fill="#F0675E"/>
</g>
<g style="mix-blend-mode:screen" opacity="0.2">
<path d="M325.5 570.607C405.499 570.607 361.316 570.607 405.499 570.607C405.499 527.311 405.492 649 405.499 570.607C405.499 613.902 405.499 570.607 405.5 649C361.317 649 325.5 613.902 325.5 570.607Z" fill="#F0675E"/>
</g>
<g style="mix-blend-mode:screen" opacity="0.2">
<path d="M245.5 650.607C325.499 650.607 281.316 650.607 325.499 650.607C325.499 607.311 325.492 729 325.499 650.607C325.499 693.902 325.499 650.607 325.5 729C281.317 729 245.5 693.902 245.5 650.607Z" fill="#F0675E"/>
</g>
<g style="mix-blend-mode:screen">
<path d="M407.784 649C407.784 728.999 407.784 684.816 407.784 728.999C451.572 728.999 328.5 728.992 407.784 728.999C363.997 728.999 407.784 728.999 328.5 729C328.5 684.817 363.997 649 407.784 649Z" fill="#F0675E"/>
</g>
<g style="mix-blend-mode:screen" opacity="0.2">
<path d="M162.784 489C162.784 568.999 162.784 524.816 162.784 568.999C206.572 568.999 83.5 568.992 162.784 568.999C118.997 568.999 162.784 568.999 83.5 569C83.5 524.817 118.997 489 162.784 489Z" fill="#F0675E"/>
</g>
<g style="mix-blend-mode:screen" opacity="0.2">
<path d="M82.5048 569C82.5048 489.001 82.5048 533.184 82.5048 489.001C38.7172 489.001 161.789 489.008 82.5048 489.001C126.292 489.001 82.5048 489.001 161.789 489C161.789 533.183 126.292 569 82.5048 569Z" fill="#F0675E"/>
</g>
<path d="M239.18 325.066L166.125 367.539L166.125 282.592L239.18 325.066Z" fill="black"/>
</g>
<rect x="0.5" y="0.5" width="404" height="650" rx="1.5" stroke="#D7D7D7"/>
<defs>
<clipPath id="clip0_1692_10562">
<rect width="405" height="651" rx="2" fill="white"/>
</clipPath>
</defs>
</svg>
