<svg width="405" height="651" viewBox="0 0 405 651" fill="none" xmlns="http://www.w3.org/2000/svg">
<g clip-path="url(#clip0_1698_9832)">
<mask id="mask0_1698_9832" style="mask-type:luminance" maskUnits="userSpaceOnUse" x="0" y="0" width="405" height="651">
<path d="M403 0H2C0.89543 0 0 0.89543 0 2V649C0 650.105 0.89543 651 2 651H403C404.105 651 405 650.105 405 649V2C405 0.89543 404.105 0 403 0Z" fill="white"/>
</mask>
<g mask="url(#mask0_1698_9832)">
<path d="M403 0H2C0.89543 0 0 0.89543 0 2V649C0 650.105 0.89543 651 2 651H403C404.105 651 405 650.105 405 649V2C405 0.89543 404.105 0 403 0Z" fill="#BD3939"/>
<g style="mix-blend-mode:screen">
<path d="M79.0031 79.9941C79.0031 -0.0050354 79.0031 44.1777 79.0031 -0.00503682C122.791 -0.00503491 -0.281281 0.00234583 79.0031 -0.00503682C35.2155 -0.00503873 79.0031 -0.00505266 -0.28125 -0.00585938C-0.281252 44.1769 35.2155 79.9941 79.0031 79.9941Z" fill="#F0675E"/>
</g>
<g style="mix-blend-mode:screen">
<path d="M159 0.709834C79.0008 0.709834 123.184 0.709834 79.0008 0.709834C79.0082 79.9941 79.0008 -43.0777 79.0008 0.709834C79.0008 44.4973 79.0008 0.709831 79 79.9941C123.183 79.9941 159 44.4973 159 0.709834Z" fill="#F0675E"/>
</g>
<g style="mix-blend-mode:screen" opacity="0.8">
<path d="M80 159.278C159.999 159.278 115.816 159.278 159.999 159.278C159.999 203.066 159.992 79.9941 159.999 159.278C159.999 115.491 159.999 159.278 160 79.9941C115.817 79.9941 80 115.491 80 159.278Z" fill="#F0675E"/>
</g>
<g style="mix-blend-mode:screen">
<path d="M162.607 159.994C162.607 239.993 162.607 195.811 162.607 239.993C241 239.986 119.311 239.993 162.607 239.993C205.902 239.993 162.607 239.993 241 239.994C241 195.811 205.902 159.994 162.607 159.994Z" fill="#F0675E"/>
</g>
<g style="mix-blend-mode:screen" opacity="0.2">
<path d="M83 81.6007C3.00082 81.6007 47.1836 81.6007 3.00082 81.6007C3.00821 159.994 3.00082 38.3051 3.00082 81.6007C3.00082 124.896 3.0008 81.6007 3 159.994C47.1828 159.994 83 124.896 83 81.6007Z" fill="#F0675E"/>
</g>
<g style="mix-blend-mode:screen" opacity="0.2">
<path d="M163 161.601C83.0008 161.601 127.184 161.601 83.0008 161.601C83.0082 239.994 83.0008 118.305 83.0008 161.601C83.0008 204.896 83.0008 161.601 83 239.994C127.183 239.994 163 204.896 163 161.601Z" fill="#F0675E"/>
</g>
<g style="mix-blend-mode:screen" opacity="0.2">
<path d="M-5 478.388C74.9992 478.388 30.8164 478.388 74.9992 478.388C74.9992 521.683 74.9918 399.994 74.9992 478.388C74.9992 435.092 74.9992 478.388 75 399.994C30.8172 399.994 -5 435.092 -5 478.388Z" fill="#F0675E"/>
</g>
<g style="mix-blend-mode:screen">
<path d="M0.715672 159.994C0.715676 239.993 0.715674 195.811 0.715676 239.993C80 239.986 -43.0718 239.993 0.715676 239.993C44.5032 239.993 0.715675 239.993 80 239.994C80 195.811 44.5032 159.994 0.715672 159.994Z" fill="#F0675E"/>
</g>
<g style="mix-blend-mode:screen" opacity="0.2">
<path d="M245.716 -0.00585937C245.716 79.9933 245.716 35.8106 245.716 79.9933C325 79.9859 201.928 79.9933 245.716 79.9933C289.503 79.9933 245.716 79.9933 325 79.9941C325 35.8114 289.503 -0.00586128 245.716 -0.00585937Z" fill="#F0675E"/>
</g>
<g style="mix-blend-mode:screen" opacity="0.2">
<path d="M239.716 239.994C239.716 319.993 239.716 275.811 239.716 319.993C319 319.986 195.928 319.993 239.716 319.993C283.503 319.993 239.716 319.993 319 319.994C319 275.811 283.503 239.994 239.716 239.994Z" fill="#F0675E"/>
</g>
<g style="mix-blend-mode:screen" opacity="0.2">
<path d="M159.566 399.994C159.566 319.995 159.566 364.178 159.566 319.995C203.353 319.995 80.2812 320.002 159.566 319.995C115.778 319.995 159.566 319.995 80.2812 319.994C80.2812 364.177 115.778 399.994 159.566 399.994Z" fill="#F0675E"/>
</g>
<g style="mix-blend-mode:screen" opacity="0.2">
<path d="M326.003 79.9941C326.003 -0.0050354 326.003 44.1777 326.003 -0.00503682C369.791 -0.00503491 246.719 0.00234583 326.003 -0.00503682C282.216 -0.00503873 326.003 -0.00505266 246.719 -0.00585938C246.719 44.1769 282.216 79.9941 326.003 79.9941Z" fill="#F0675E"/>
</g>
<g style="mix-blend-mode:screen" opacity="0.2">
<path d="M320.003 319.994C320.003 239.995 320.003 284.178 320.003 239.995C363.791 239.995 240.719 240.002 320.003 239.995C276.216 239.995 320.003 239.995 240.719 239.994C240.719 284.177 276.216 319.994 320.003 319.994Z" fill="#F0675E"/>
</g>
<g style="mix-blend-mode:screen" opacity="0.5">
<path d="M79.2843 399.994C79.2843 319.995 79.2843 364.178 79.2843 319.995C123.072 319.995 -3.05176e-05 320.002 79.2843 319.995C35.4968 319.995 79.2843 319.995 0 319.994C-1.93129e-06 364.177 35.4968 399.994 79.2843 399.994Z" fill="#F0675E"/>
</g>
<g style="mix-blend-mode:screen" opacity="0.2">
<path d="M239.284 479.994C239.284 399.995 239.284 444.178 239.284 399.995C283.072 399.995 160 400.002 239.284 399.995C195.497 399.995 239.284 399.995 160 399.994C160 444.177 195.497 479.994 239.284 479.994Z" fill="#F0675E"/>
</g>
<g style="mix-blend-mode:screen">
<path d="M80 239.994H0V319.994H80V239.994Z" fill="#F0675E"/>
</g>
<g style="mix-blend-mode:screen">
<mask id="mask1_1698_9832" style="mask-type:alpha" maskUnits="userSpaceOnUse" x="3" y="242" width="74" height="75">
<g style="mix-blend-mode:screen">
<path d="M39.7516 316.498C60.0489 316.498 76.5032 300.044 76.5032 279.746C76.5032 259.449 60.0489 242.995 39.7516 242.995C19.4543 242.995 3 259.449 3 279.746C3 300.044 19.4543 316.498 39.7516 316.498Z" fill="#4138B1"/>
</g>
</mask>
<g mask="url(#mask1_1698_9832)">
<path d="M77.9193 355.368C98.607 355.368 115.378 338.598 115.378 317.91C115.378 297.222 98.607 280.452 77.9193 280.452C57.2316 280.452 40.4609 297.222 40.4609 317.91C40.4609 338.598 57.2316 355.368 77.9193 355.368Z" fill="#F0675E"/>
<path d="M77.9193 280.453C98.607 280.453 115.378 263.683 115.378 242.995C115.378 222.307 98.607 205.537 77.9193 205.537C57.2316 205.537 40.4609 222.307 40.4609 242.995C40.4609 263.683 57.2316 280.453 77.9193 280.453Z" fill="#F0675E"/>
<path d="M2.99746 280.453C23.6852 280.453 40.4559 263.683 40.4559 242.995C40.4559 222.307 23.6852 205.537 2.99746 205.537C-17.6902 205.537 -34.4609 222.307 -34.4609 242.995C-34.4609 263.683 -17.6902 280.453 2.99746 280.453Z" fill="#F0675E"/>
<path d="M2.99746 355.368C23.6852 355.368 40.4559 338.598 40.4559 317.91C40.4559 297.222 23.6852 280.452 2.99746 280.452C-17.6902 280.452 -34.4609 297.222 -34.4609 317.91C-34.4609 338.598 -17.6902 355.368 2.99746 355.368Z" fill="#F0675E"/>
</g>
</g>
<g style="mix-blend-mode:screen" opacity="0.2">
<mask id="mask2_1698_9832" style="mask-type:alpha" maskUnits="userSpaceOnUse" x="163" y="242" width="74" height="75">
<g style="mix-blend-mode:screen" opacity="0.2">
<path d="M199.752 316.498C220.049 316.498 236.503 300.044 236.503 279.746C236.503 259.449 220.049 242.995 199.752 242.995C179.454 242.995 163 259.449 163 279.746C163 300.044 179.454 316.498 199.752 316.498Z" fill="#4138B1"/>
</g>
</mask>
<g mask="url(#mask2_1698_9832)">
<path d="M237.919 355.368C258.607 355.368 275.378 338.598 275.378 317.91C275.378 297.222 258.607 280.452 237.919 280.452C217.232 280.452 200.461 297.222 200.461 317.91C200.461 338.598 217.232 355.368 237.919 355.368Z" fill="#F0675E"/>
<path d="M237.919 280.453C258.607 280.453 275.378 263.683 275.378 242.995C275.378 222.307 258.607 205.537 237.919 205.537C217.232 205.537 200.461 222.307 200.461 242.995C200.461 263.683 217.232 280.453 237.919 280.453Z" fill="#F0675E"/>
<path d="M162.997 280.453C183.685 280.453 200.456 263.683 200.456 242.995C200.456 222.307 183.685 205.537 162.997 205.537C142.31 205.537 125.539 222.307 125.539 242.995C125.539 263.683 142.31 280.453 162.997 280.453Z" fill="#F0675E"/>
<path d="M162.997 355.368C183.685 355.368 200.456 338.598 200.456 317.91C200.456 297.222 183.685 280.452 162.997 280.452C142.31 280.452 125.539 297.222 125.539 317.91C125.539 338.598 142.31 355.368 162.997 355.368Z" fill="#F0675E"/>
</g>
</g>
<g style="mix-blend-mode:screen">
<path d="M329.497 569C329.497 489.001 329.497 533.184 329.497 489.001C408.781 489.008 285.709 489.001 329.497 489.001C373.284 489.001 329.497 489.001 408.781 489C408.781 533.183 373.284 569 329.497 569Z" fill="#F0675E"/>
</g>
<g style="mix-blend-mode:screen">
<path d="M249.5 489.716C329.499 489.716 285.316 489.716 329.499 489.716C329.499 445.928 329.492 569 329.499 489.716C329.499 533.503 329.499 489.716 329.5 569C285.317 569 249.5 533.503 249.5 489.716Z" fill="#F0675E"/>
</g>
<g style="mix-blend-mode:screen" opacity="0.8">
<path d="M328.5 648.284C248.501 648.284 292.684 648.284 248.501 648.284C248.508 569 248.501 692.072 248.501 648.284C248.501 604.497 248.501 648.284 248.5 569C292.683 569 328.5 604.497 328.5 648.284Z" fill="#F0675E"/>
</g>
<g style="mix-blend-mode:screen">
<path d="M245.893 649C245.893 728.999 245.893 684.816 245.893 728.999C289.189 728.999 167.5 728.992 245.893 728.999C202.598 728.999 245.893 728.999 167.5 729C167.5 684.817 202.598 649 245.893 649Z" fill="#F0675E"/>
</g>
<g style="mix-blend-mode:screen" opacity="0.2">
<path d="M325.5 570.607C405.499 570.607 361.316 570.607 405.499 570.607C405.499 527.311 405.492 649 405.499 570.607C405.499 613.902 405.499 570.607 405.5 649C361.317 649 325.5 613.902 325.5 570.607Z" fill="#F0675E"/>
</g>
<g style="mix-blend-mode:screen" opacity="0.2">
<path d="M245.5 650.607C325.499 650.607 281.316 650.607 325.499 650.607C325.499 607.311 325.492 729 325.499 650.607C325.499 693.902 325.499 650.607 325.5 729C281.317 729 245.5 693.902 245.5 650.607Z" fill="#F0675E"/>
</g>
<g style="mix-blend-mode:screen">
<path d="M407.784 649C407.784 728.999 407.784 684.816 407.784 728.999C451.572 728.999 328.5 728.992 407.784 728.999C363.997 728.999 407.784 728.999 328.5 729C328.5 684.817 363.997 649 407.784 649Z" fill="#F0675E"/>
</g>
<g style="mix-blend-mode:screen" opacity="0.2">
<path d="M162.784 489C162.784 568.999 162.784 524.816 162.784 568.999C206.572 568.999 83.5 568.992 162.784 568.999C118.997 568.999 162.784 568.999 83.5 569C83.5 524.817 118.997 489 162.784 489Z" fill="#F0675E"/>
</g>
<g style="mix-blend-mode:screen" opacity="0.2">
<path d="M82.5048 569C82.5048 489.001 82.5048 533.184 82.5048 489.001C161.789 489.008 38.7172 489.001 82.5048 489.001C126.292 489.001 82.5048 489.001 161.789 489C161.789 533.183 126.292 569 82.5048 569Z" fill="#F0675E"/>
</g>
</g>
<path d="M403 0.5H2C1.17157 0.5 0.5 1.17157 0.5 2V649C0.5 649.828 1.17157 650.5 2 650.5H403C403.828 650.5 404.5 649.828 404.5 649V2C404.5 1.17157 403.828 0.5 403 0.5Z" stroke="#D7D7D7"/>
</g>
<defs>
<clipPath id="clip0_1698_9832">
<rect width="405" height="651" fill="white"/>
</clipPath>
</defs>
</svg>
