<svg width="23" height="22" viewBox="0 0 23 22" fill="none" xmlns="http://www.w3.org/2000/svg">
<path d="M8.1539 7.40865L8.51172 7.35677L8.67175 7.03256L11.287 1.73423L11.2872 1.73383C11.3061 1.69545 11.3354 1.66313 11.3717 1.64053C11.408 1.61793 11.45 1.60596 11.4928 1.60596C11.5355 1.60596 11.5775 1.61793 11.6138 1.64053C11.6501 1.66313 11.6794 1.69545 11.6983 1.73382L11.6985 1.73414L14.3128 7.03248L14.4728 7.3567L14.8306 7.40863L20.6789 8.25747L20.6791 8.2575C20.7192 8.2633 20.7571 8.27963 20.7888 8.30482C20.8205 8.33001 20.845 8.36316 20.8597 8.40089C20.8745 8.43862 20.879 8.47959 20.8727 8.51962C20.8672 8.55506 20.8534 8.58865 20.8326 8.61771L20.793 8.66088L16.5683 12.7723L16.3089 13.0247L16.3702 13.3813L17.3703 19.2068L17.3703 19.207C17.3772 19.2471 17.3733 19.2883 17.359 19.3263L18.0028 19.5677L17.359 19.3263C17.3448 19.3644 17.3206 19.398 17.2891 19.4236C17.2575 19.4493 17.2197 19.4661 17.1796 19.4723C17.1436 19.4779 17.1069 19.4748 17.0725 19.4635L17.021 19.4397L11.8188 16.6984L11.4986 16.5297L11.1783 16.6981L5.94782 19.4481L5.94756 19.4482C5.91162 19.4671 5.87129 19.4762 5.83072 19.4744C5.79014 19.4726 5.75077 19.46 5.71664 19.438L5.34407 20.0158L5.71663 19.438C5.6825 19.416 5.65483 19.3853 5.63645 19.3491C5.6201 19.3169 5.61164 19.2813 5.61166 19.2453L5.61832 19.1889L6.61445 13.3812L6.6756 13.0247L6.41638 12.7724L2.17955 8.64828L2.17891 8.64766C2.14981 8.61941 2.12873 8.58394 2.11782 8.54488C2.10691 8.50581 2.10657 8.46455 2.11682 8.42531C2.12707 8.38607 2.14756 8.35025 2.17618 8.32151C2.20163 8.29596 2.23271 8.27682 2.26684 8.26558L2.3249 8.25376L8.1539 7.40865Z" fill="#D81D1D" stroke="#D81D1D" stroke-width="1.375"/>
</svg>
