<svg width="1281" height="461" viewBox="0 0 1281 461" fill="none" xmlns="http://www.w3.org/2000/svg">
<g clip-path="url(#clip0_1733_18151)">
<rect width="1281" height="460.412" fill="#BD3939"/>
<path d="M676.18 229.357L603.125 271.83L603.125 186.883L676.18 229.357Z" fill="#BD3939"/>
<g style="mix-blend-mode:screen">
<path d="M-22.4151 74.863C-22.4151 -7.70966 -22.4151 37.8944 -22.4151 -7.70966C22.781 -7.70966 -104.25 -7.70204 -22.4151 -7.70966C-67.6113 -7.70966 -22.4151 -7.70968 -104.25 -7.71051C-104.25 37.8936 -67.6113 74.863 -22.4151 74.863Z" fill="#F0675E"/>
</g>
<g style="mix-blend-mode:screen">
<path d="M1303.42 74.863C1303.42 -7.70966 1303.42 37.8944 1303.42 -7.70966C1258.22 -7.70966 1385.25 -7.70204 1303.42 -7.70966C1348.61 -7.70966 1303.42 -7.70968 1385.25 -7.71051C1385.25 37.8936 1348.61 74.863 1303.42 74.863Z" fill="#F0675E"/>
</g>
<g style="mix-blend-mode:screen">
<path d="M60.1673 -6.97176C-22.4054 -6.97176 23.1987 -6.97176 -22.4054 -6.97176C-22.4054 -52.1679 -22.3978 74.8631 -22.4054 -6.97176C-22.4054 38.2244 -22.4054 -6.97176 -22.4062 74.8631C23.1979 74.8631 60.1673 38.2244 60.1673 -6.97176Z" fill="#F0675E"/>
</g>
<g style="mix-blend-mode:screen">
<path d="M1220.84 -6.97176C1303.41 -6.97176 1257.81 -6.97176 1303.41 -6.97176C1303.41 -52.1679 1303.41 74.8631 1303.41 -6.97176C1303.41 38.2244 1303.41 -6.97176 1303.41 74.8631C1257.81 74.8631 1220.84 38.2244 1220.84 -6.97176Z" fill="#F0675E"/>
</g>
<g style="mix-blend-mode:screen" opacity="0.8">
<path d="M-21.3861 156.698C61.1866 156.698 15.5825 156.698 61.1866 156.698C61.1866 201.894 61.179 74.8631 61.1866 156.698C61.1867 111.502 61.1867 156.698 61.1875 74.8631C15.5834 74.8631 -21.3861 111.502 -21.3861 156.698Z" fill="#F0675E"/>
</g>
<g style="mix-blend-mode:screen" opacity="0.8">
<path d="M1302.38 156.698C1219.81 156.698 1265.41 156.698 1219.81 156.698C1219.81 201.894 1219.81 74.8631 1219.81 156.698C1219.81 111.502 1219.81 156.698 1219.8 74.8631C1265.41 74.8631 1302.38 111.502 1302.38 156.698Z" fill="#F0675E"/>
</g>
<g style="mix-blend-mode:screen">
<path d="M63.8815 157.437C63.8815 240.009 63.8815 194.405 63.8815 240.009C19.1932 240.009 144.797 240.002 63.8815 240.009C108.57 240.009 63.8815 240.009 144.797 240.01C144.797 194.406 108.57 157.437 63.8815 157.437Z" fill="#F0675E"/>
</g>
<g style="mix-blend-mode:screen">
<path d="M1217.12 157.437C1217.12 240.009 1217.12 194.405 1217.12 240.009C1261.81 240.009 1136.2 240.002 1217.12 240.009C1172.43 240.009 1217.12 240.009 1136.2 240.01C1136.2 194.406 1172.43 157.437 1217.12 157.437Z" fill="#F0675E"/>
</g>
<g style="mix-blend-mode:screen" opacity="0.2">
<path d="M64.2845 159.095C-18.2882 159.095 27.3159 159.095 -18.2882 159.095C-18.2882 114.406 -18.2806 240.01 -18.2882 159.095C-18.2882 203.783 -18.2882 159.095 -18.2891 240.01C27.3151 240.01 64.2845 203.783 64.2845 159.095Z" fill="#F0675E"/>
</g>
<g style="mix-blend-mode:screen" opacity="0.2">
<path d="M1216.71 159.095C1299.28 159.095 1253.68 159.095 1299.28 159.095C1299.28 114.406 1299.27 240.01 1299.28 159.095C1299.28 203.783 1299.28 159.095 1299.28 240.01C1253.68 240.01 1216.71 203.783 1216.71 159.095Z" fill="#F0675E"/>
</g>
<g style="mix-blend-mode:screen">
<path d="M1303.12 322.584C1303.12 405.156 1303.12 359.552 1303.12 405.156C1348.31 405.156 1221.28 405.149 1303.12 405.156C1257.92 405.156 1303.12 405.156 1221.28 405.157C1221.28 359.553 1257.92 322.584 1303.12 322.584Z" fill="#F0675E"/>
</g>
<g style="mix-blend-mode:screen" opacity="0.2">
<path d="M149.673 -7.71045C149.673 74.8623 149.673 29.2581 149.673 74.8623C104.477 74.8623 231.508 74.8546 149.673 74.8623C194.869 74.8623 149.673 74.8623 231.508 74.8631C231.508 29.259 194.869 -7.71046 149.673 -7.71045Z" fill="#F0675E"/>
</g>
<g style="mix-blend-mode:screen" opacity="0.2">
<path d="M1131.33 -7.71045C1131.33 74.8623 1131.33 29.2581 1131.33 74.8623C1176.53 74.8623 1049.5 74.8546 1131.33 74.8623C1086.14 74.8623 1131.33 74.8623 1049.5 74.8631C1049.5 29.259 1086.14 -7.71046 1131.33 -7.71045Z" fill="#F0675E"/>
</g>
<g style="mix-blend-mode:screen" opacity="0.2">
<path d="M143.478 240.01C143.478 322.583 143.478 276.979 143.478 322.583C98.2815 322.583 225.313 322.575 143.478 322.583C188.674 322.583 143.478 322.583 225.312 322.584C225.312 276.98 188.674 240.01 143.478 240.01Z" fill="#F0675E"/>
</g>
<g style="mix-blend-mode:screen" opacity="0.2">
<path d="M1137.53 240.01C1137.53 322.583 1137.53 276.979 1137.53 322.583C1182.73 322.583 1055.7 322.575 1137.53 322.583C1092.33 322.583 1137.53 322.583 1055.7 322.584C1055.7 276.98 1092.33 240.01 1137.53 240.01Z" fill="#F0675E"/>
</g>
<g style="mix-blend-mode:screen" opacity="0.2">
<path d="M60.7489 405.157C60.7489 322.585 60.7489 368.189 60.7489 322.585C105.945 322.585 -21.0859 322.592 60.7489 322.585C15.5528 322.585 60.7489 322.585 -21.0859 322.584C-21.0859 368.188 15.5528 405.157 60.7489 405.157Z" fill="#F0675E"/>
</g>
<g style="mix-blend-mode:screen" opacity="0.2">
<path d="M1220.24 405.157C1220.24 322.585 1220.24 368.189 1220.24 322.585C1175.05 322.585 1302.08 322.592 1220.24 322.585C1265.44 322.585 1220.24 322.585 1302.08 322.584C1302.08 368.188 1265.44 405.157 1220.24 405.157Z" fill="#F0675E"/>
</g>
<g style="mix-blend-mode:screen" opacity="0.2">
<path d="M232.546 74.863C232.546 -7.70966 232.546 37.8944 232.546 -7.70966C277.742 -7.70966 150.711 -7.70204 232.546 -7.70966C187.35 -7.70966 232.546 -7.70968 150.711 -7.71051C150.711 37.8936 187.35 74.863 232.546 74.863Z" fill="#F0675E"/>
</g>
<g style="mix-blend-mode:screen" opacity="0.2">
<path d="M1048.47 74.863C1048.47 -7.70966 1048.47 37.8944 1048.47 -7.70966C1003.27 -7.70966 1130.3 -7.70204 1048.47 -7.70966C1093.67 -7.70966 1048.47 -7.70968 1130.3 -7.71051C1130.3 37.8936 1093.67 74.863 1048.47 74.863Z" fill="#F0675E"/>
</g>
<g style="mix-blend-mode:screen" opacity="0.2">
<path d="M226.35 322.584C226.35 240.011 226.35 285.615 226.35 240.011C271.547 240.011 144.516 240.019 226.35 240.011C181.154 240.011 226.35 240.011 144.516 240.01C144.516 285.614 181.154 322.584 226.35 322.584Z" fill="#F0675E"/>
</g>
<g style="mix-blend-mode:screen" opacity="0.2">
<path d="M1054.67 322.584C1054.67 240.011 1054.67 285.615 1054.67 240.011C1009.47 240.011 1136.5 240.019 1054.67 240.011C1099.86 240.011 1054.67 240.011 1136.5 240.01C1136.5 285.614 1099.86 322.584 1054.67 322.584Z" fill="#F0675E"/>
</g>
<g style="mix-blend-mode:screen" opacity="0.5">
<path d="M-22.1105 405.157C-22.1105 322.585 -22.1105 368.189 -22.1105 322.585C23.0857 322.585 -103.945 322.592 -22.1105 322.585C-67.3066 322.585 -22.1104 322.585 -103.945 322.584C-103.945 368.188 -67.3066 405.157 -22.1105 405.157Z" fill="#F0675E"/>
</g>
<g style="mix-blend-mode:screen" opacity="0.5">
<path d="M1303.12 405.157C1303.12 322.585 1303.12 368.189 1303.12 322.585C1257.92 322.585 1384.95 322.592 1303.12 322.585C1348.31 322.585 1303.12 322.585 1384.95 322.584C1384.95 368.188 1348.31 405.157 1303.12 405.157Z" fill="#F0675E"/>
</g>
<g style="mix-blend-mode:screen" opacity="0.2">
<path d="M143.022 487.731C143.022 405.158 143.022 450.762 143.022 405.158C188.219 405.158 61.1875 405.166 143.022 405.158C97.8262 405.158 143.022 405.158 61.1875 405.157C61.1875 450.761 97.8262 487.731 143.022 487.731Z" fill="#F0675E"/>
</g>
<g style="mix-blend-mode:screen" opacity="0.2">
<path d="M1137.97 487.731C1137.97 405.158 1137.97 450.762 1137.97 405.158C1092.77 405.158 1219.8 405.166 1137.97 405.158C1183.17 405.158 1137.97 405.158 1219.8 405.157C1219.8 450.761 1183.17 487.731 1137.97 487.731Z" fill="#F0675E"/>
</g>
<g style="mix-blend-mode:screen" opacity="0.2">
<mask id="mask0_1733_18151" style="mask-type:alpha" maskUnits="userSpaceOnUse" x="64" y="243" width="77" height="76">
<circle cx="102.223" cy="281.041" r="37.9339" fill="#4138B1"/>
</mask>
<g mask="url(#mask0_1733_18151)">
<circle cx="141.609" cy="320.433" r="38.6634" fill="#F0675E"/>
<circle cx="141.609" cy="243.107" r="38.6634" fill="#F0675E"/>
<circle cx="64.2962" cy="243.107" r="38.6634" fill="#F0675E"/>
<circle cx="64.2962" cy="320.433" r="38.6634" fill="#F0675E"/>
</g>
</g>
<g style="mix-blend-mode:screen" opacity="0.2">
<mask id="mask1_1733_18151" style="mask-type:alpha" maskUnits="userSpaceOnUse" x="1140" y="243" width="77" height="76">
<circle cx="37.9339" cy="37.9339" r="37.9339" transform="matrix(-1 0 0 1 1216.71 243.107)" fill="#4138B1"/>
</mask>
<g mask="url(#mask1_1733_18151)">
<circle cx="38.6634" cy="38.6634" r="38.6634" transform="matrix(-1 0 0 1 1178.05 281.769)" fill="#F0675E"/>
<circle cx="38.6634" cy="38.6634" r="38.6634" transform="matrix(-1 0 0 1 1178.05 204.444)" fill="#F0675E"/>
<circle cx="38.6634" cy="38.6634" r="38.6634" transform="matrix(-1 0 0 1 1255.37 204.444)" fill="#F0675E"/>
<circle cx="38.6634" cy="38.6634" r="38.6634" transform="matrix(-1 0 0 1 1255.37 281.769)" fill="#F0675E"/>
</g>
</g>
<g style="mix-blend-mode:screen">
<path d="M249.5 489.716C329.499 489.716 285.316 489.716 329.499 489.716C329.499 445.928 329.492 569 329.499 489.716C329.499 533.503 329.499 489.716 329.5 569C285.317 569 249.5 533.503 249.5 489.716Z" fill="#F0675E"/>
</g>
<path d="M677 230.473L603.946 272.947L603.946 188L677 230.473Z" fill="black"/>
</g>
<defs>
<clipPath id="clip0_1733_18151">
<rect width="1281" height="460.412" fill="white"/>
</clipPath>
</defs>
</svg>
